<svg version="1.2" xmlns="http://www.w3.org/2000/svg" viewBox="0 0 1024 1024" width="1024" height="1024">
	<style>
		.s0 { opacity: .99;fill: #3a4051 } 
		.s1 { opacity: 1;fill: #ededed } 
		.s2 { opacity: 1;fill: #6bb55b } 
		.s3 { opacity: 1;fill: #959a9c } 
	</style>
	<g id="Background">
		<path id="Path 0" class="s0" d="m450.73 1.25c-0.23 0.7-3.03 1.56-6.32 1.96-3.25 0.39-8.61 1.16-11.91 1.71-3.3 0.55-10.27 1.94-15.5 3.07-5.23 1.14-12.43 2.47-16 2.97-3.58 0.49-12.13 2.56-19 4.59-6.88 2.03-15.2 4.37-18.5 5.19-3.3 0.82-10.27 3.06-15.5 4.98-5.23 1.92-13.55 4.97-18.5 6.77-4.95 1.8-12.04 4.68-15.75 6.39-3.71 1.72-7.2 3.12-7.75 3.12-0.55 0-8.31 3.6-17.25 8-8.94 4.4-19.4 9.72-23.25 11.83-3.85 2.1-10.6 5.98-15 8.62-4.4 2.64-10.48 6.38-13.5 8.33-3.03 1.94-9.33 6.07-14 9.17-4.68 3.11-11.88 8.19-16 11.29-4.13 3.1-10.03 7.58-13.12 9.95-3.09 2.37-7.48 5.89-9.76 7.81-2.27 1.92-10.31 9.07-17.87 15.88-7.56 6.82-16.45 15.28-19.75 18.82-3.3 3.54-10.84 11.58-16.75 17.87-5.91 6.29-11.51 12.67-12.43 14.18-0.92 1.51-2.92 4.1-4.44 5.75-1.52 1.65-3.8 4.43-5.07 6.19-1.27 1.75-4.98 6.7-8.24 11-3.26 4.29-7.41 10.06-9.22 12.81-1.81 2.75-4.54 6.83-6.07 9.07-1.53 2.24-3.32 4.94-3.98 6-0.66 1.06-3.1 5.08-5.42 8.93-2.32 3.85-5.88 9.7-7.91 13-2.03 3.3-4.67 8.02-5.87 10.5-1.2 2.48-3.72 6.98-5.6 10-1.88 3.02-3.44 6.06-3.46 6.75-0.02 0.69-1.99 4.96-4.37 9.5-2.39 4.54-4.93 10.05-5.65 12.25-0.72 2.2-3.22 8.05-5.56 13-2.33 4.95-4.69 10.57-5.24 12.5-0.56 1.93-3.08 8.79-5.61 15.25-2.54 6.46-4.61 13.1-4.61 14.75 0 1.65-0.51 4.24-1.12 5.75-0.62 1.51-1.49 3.65-1.93 4.75-0.45 1.1-1.37 4.48-2.06 7.5-0.69 3.02-1.63 5.95-2.09 6.5-0.46 0.55-0.83 2.01-0.82 3.25 0.01 1.24-0.43 2.48-0.98 2.75-0.55 0.27-1 2.41-1 4.75 0.01 2.34-0.9 9.2-2 15.25-1.11 6.05-2.46 12.91-3.01 15.25-0.54 2.34-0.99 5.38-0.99 6.75 0 1.38-0.61 3.96-1.36 5.75-0.75 1.79-1.87 5.95-2.5 9.25-0.76 4.03-1.13 25.11-1.13 64.25-0.01 38.54 0.33 58.33 1 58.5 0.56 0.14 1.45 3.85 1.99 8.25 0.53 4.4 2.04 14.08 3.37 21.5 1.32 7.42 2.93 16.42 3.58 20 0.65 3.58 1.64 8.75 2.21 11.5 0.56 2.75 1.44 6.35 1.94 8 0.5 1.65 2.27 7.27 3.93 12.5 1.65 5.23 3 10.51 2.99 11.75-0.01 1.24 0.39 3.26 0.9 4.5 0.5 1.24 2.68 6.98 4.85 12.75 2.17 5.77 4.53 12.3 5.24 14.5 0.72 2.2 3.26 8.16 5.65 13.25 2.39 5.09 4.34 9.7 4.34 10.25 0 0.55 1.5 4.04 3.34 7.75 1.84 3.71 3.84 7.65 4.44 8.75 0.6 1.1 2.31 4.7 3.8 8 1.49 3.3 3.71 7.35 4.93 9 1.22 1.65 2.75 4.58 3.41 6.5 0.66 1.92 2.74 5.64 4.64 8.25 1.89 2.61 3.86 5.76 4.38 7 0.52 1.24 3.78 6.61 7.25 11.94 3.47 5.33 8.11 12.44 10.31 15.81 2.2 3.36 5.69 8.11 7.75 10.56 2.06 2.44 3.74 4.78 3.72 5.19-0.02 0.41 2.12 3.32 4.75 6.47 2.63 3.14 6.58 8.07 8.78 10.95 2.2 2.88 9.05 10.43 15.23 16.78 6.18 6.35 11.24 11.89 11.25 12.3 0.01 0.41 3.51 4.04 7.77 8.07 4.26 4.02 14.05 13 21.75 19.95 7.7 6.95 16.25 14.67 19 17.16 2.75 2.48 5.45 4.51 6 4.51 0.55 0.01 2.12 1.2 3.5 2.65 1.37 1.45 4.93 4.05 7.91 5.77 2.97 1.73 5.9 3.86 6.5 4.75 0.6 0.88 2.89 2.52 5.09 3.64 2.2 1.12 4.9 3 6 4.18 1.1 1.17 2.34 2.12 2.75 2.1 0.41-0.02 5.47 3.12 11.25 6.97 5.77 3.85 10.72 7 11 7 0.27 0 1.96 1.11 3.75 2.47 1.79 1.36 3.7 2.47 4.25 2.47 0.55 0 1.9 0.91 3 2.03 1.1 1.12 3.12 2.29 4.5 2.61 1.37 0.31 4.52 1.81 7 3.31 2.48 1.51 11.02 5.97 19 9.91 7.98 3.94 15.06 7.17 15.75 7.18 0.69 0.01 5.98 2.27 11.75 5.02 5.77 2.75 11.06 5 11.75 5 0.69-0.01 5.98 1.84 11.75 4.11 5.77 2.26 11.96 4.74 13.75 5.5 1.79 0.76 5 1.28 7.14 1.14 2.14-0.14 3.72 0.09 3.5 0.5-0.21 0.41 1.97 1.41 4.86 2.22 2.89 0.81 7.73 2.19 10.75 3.07 3.02 0.88 7.75 2.21 10.5 2.95 2.75 0.74 7.02 1.34 9.5 1.33 2.48-0.02 6.75 0.74 9.5 1.67 2.75 0.93 7.7 2.15 11 2.7 3.3 0.55 8.48 1.41 11.5 1.93 3.02 0.51 8.31 1.14 11.75 1.41 4.68 0.35 6.25 0.85 6.25 1.97 0 1.32 7.5 1.5 61.5 1.5 52.8 0 62.03-0.22 65.25-1.52 2.06-0.84 5.21-1.52 7-1.5 1.79 0.01 3.43-0.32 3.64-0.73 0.22-0.41 2.8-1.08 5.75-1.48 2.95-0.4 7.61-1.16 10.36-1.69 2.75-0.52 7.02-1.47 9.5-2.11 2.48-0.63 7.65-1.52 11.5-1.97 3.85-0.45 8.8-1.25 11-1.78 2.2-0.53 4.67-1.21 5.5-1.51 0.83-0.3 2.74-0.81 4.25-1.13 1.51-0.32 2.52-1.03 2.25-1.58-0.27-0.55 0.06-0.74 0.75-0.41 0.69 0.32 3.84-0.35 7-1.5 3.16-1.15 7.44-2.08 9.5-2.07 2.06 0.01 4.65-0.65 5.75-1.47 1.1-0.82 2.56-1.5 3.25-1.52 0.69-0.02 4.29-1.43 8-3.15 3.71-1.71 7.27-3.17 7.9-3.25 0.64-0.07 1.5-0.47 1.92-0.88 0.42-0.41 1.93-0.75 3.35-0.76 1.42-0.01 7.08-2.19 12.58-4.85 5.5-2.67 11.12-5.11 12.5-5.43 1.37-0.33 6.21-2.64 10.75-5.15 4.54-2.51 8.7-4.56 9.25-4.56 0.55 0 4.94-2.21 9.75-4.92 4.81-2.71 10.05-5.29 11.63-5.75 1.59-0.46 3.05-1.17 3.25-1.58 0.2-0.41 2.73-2.24 5.62-4.06 2.89-1.82 5.92-3.57 6.75-3.88 0.83-0.32 7.58-4.73 15-9.81 7.42-5.07 14.4-9.56 15.5-9.98 1.1-0.42 2.67-1.57 3.5-2.55 0.83-0.99 3.98-3.38 7-5.3 3.02-1.92 5.73-3.76 6-4.08 0.27-0.33 4.1-3.76 8.5-7.64 4.4-3.88 9.58-8.12 11.5-9.43 1.92-1.3 9.05-7.81 15.82-14.45 6.78-6.64 14.7-14.55 17.6-17.57 2.9-3.02 10.41-11 16.68-17.71 6.27-6.72 13.3-14.37 15.62-17 2.32-2.64 4.24-5.24 4.26-5.79 0.03-0.55 2.07-3.14 4.54-5.75 2.46-2.61 4.47-5.31 4.46-6-0.01-0.69 1.38-2.6 3.1-4.25 1.72-1.65 3.54-3.9 4.04-5 0.51-1.1 2.15-3.85 3.65-6.11 1.5-2.26 5.87-8.79 9.71-14.5 3.83-5.71 8.88-13.54 11.21-17.39 2.33-3.85 5.23-9.02 6.44-11.5 1.2-2.48 3.92-7.31 6.03-10.75 2.11-3.44 4.13-7.71 4.48-9.5 0.35-1.79 1-3.7 1.43-4.25 0.43-0.55 2.54-4.15 4.69-8 2.14-3.85 4.26-8.58 4.7-10.5 0.44-1.92 1.81-5.52 3.05-8 1.24-2.48 3.2-6.41 4.37-8.75 1.17-2.34 2.12-5.38 2.12-6.75 0-1.38 0.39-3.29 0.87-4.25 0.49-0.96 1.84-3.66 3-6 1.17-2.34 2.13-4.7 2.13-5.25 0-0.55 1.12-3.48 2.5-6.5 1.37-3.02 2.5-7.3 2.5-9.5 0-2.2 0.45-4.23 1-4.5 0.55-0.27 1-1.63 1-3 0-1.38 0.45-2.73 1-3 0.55-0.27 1-2.08 1-4 0-1.92 0.45-3.73 1-4 0.55-0.27 1-1.63 1-3 0-1.38 0.45-2.73 1-3 0.55-0.27 0.99-1.74 0.98-3.25-0.01-1.51 0.4-3.2 0.9-3.75 0.51-0.55 1.17-4.15 1.47-8 0.3-3.85 0.83-8.58 1.17-10.5 0.34-1.92 1.01-4.4 1.5-5.5 0.48-1.1 1.11-4.02 1.4-6.5 0.28-2.48 0.78-6.52 1.1-9 0.33-2.48 0.99-5.4 1.48-6.5 0.49-1.1 1.2-4.25 1.57-7 0.37-2.75 0.85-30.99 1.05-62.75 0.33-50.34 0.19-57.94-1.12-59.25-0.95-0.95-1.5-3.43-1.51-6.75-0.01-2.89-0.72-9.98-1.58-15.75-0.86-5.77-1.93-12.07-2.39-14-0.45-1.93-1.31-5.64-1.92-8.25-0.6-2.61-1.1-6.77-1.1-9.25 0-2.48-1.37-8.89-3.05-14.25-1.68-5.36-3.91-12.45-4.96-15.75-1.05-3.3-2.19-8.02-2.53-10.5-0.34-2.48-1.09-5.63-1.67-7-0.58-1.38-1.4-3.4-1.82-4.5-0.43-1.1-1.72-4.14-2.87-6.75-1.16-2.61-2.1-5.43-2.1-6.25 0-0.82-0.34-1.67-0.75-1.88-0.41-0.21-1.13-2.35-1.59-4.75-0.46-2.4-1.67-5.72-2.69-7.37-1.02-1.65-3.01-5.48-4.44-8.5-1.42-3.02-2.57-6.06-2.56-6.75 0.02-0.69-2.46-6.31-5.5-12.5-3.04-6.19-6.72-13.5-8.17-16.25-1.45-2.75-4.03-7.7-5.73-11-1.71-3.3-5.08-9.38-7.5-13.5-2.43-4.13-6.56-10.88-9.19-15-2.62-4.13-6.04-9.24-7.58-11.37-1.54-2.13-3.47-5.08-4.3-6.55-0.83-1.48-2.66-4.23-4.09-6.13-1.42-1.9-4.32-5.92-6.43-8.95-2.12-3.03-5.11-6.85-6.66-8.5-1.55-1.65-2.83-3.45-2.85-4-0.02-0.55-1.84-3.03-4.04-5.5-2.2-2.47-7.53-8.55-11.84-13.5-4.31-4.95-13.18-14.43-19.71-21.07-6.54-6.64-15.71-15.65-20.38-20.03-4.67-4.38-10.5-9.52-12.94-11.43-2.44-1.91-5.7-4.93-7.25-6.72-1.55-1.79-3.37-3.25-4.06-3.24-0.69 0-3.95-2.46-7.25-5.47-3.3-3-6.45-5.5-7-5.53-0.55-0.04-2.8-1.58-5-3.42-2.2-1.84-7.54-5.76-11.86-8.72-4.32-2.95-10.4-6.95-13.5-8.88-3.1-1.93-6.77-4.53-8.14-5.77-1.38-1.24-3.17-2.25-4-2.25-0.83 0.01-4.76-2.23-8.75-4.98-3.99-2.74-7.81-4.98-8.5-4.98-0.69 0.01-3.27-1.25-5.75-2.8-2.48-1.55-10.8-5.89-18.5-9.64-7.7-3.75-15.58-7.38-17.5-8.07-1.92-0.68-5.75-2.25-8.5-3.49-2.75-1.23-6.91-3.09-9.25-4.13-2.34-1.03-4.92-1.88-5.75-1.88-0.83 0-2.29-0.4-3.25-0.89-0.96-0.48-4-1.79-6.75-2.91-2.75-1.11-7.48-3.01-10.5-4.23-3.02-1.21-7.52-2.56-10-2.99-2.48-0.43-7.65-1.77-11.5-2.97-3.85-1.21-10.15-3.1-14-4.2-3.85-1.11-10.15-2.37-14-2.81-3.85-0.44-8.8-1.3-11-1.91-2.2-0.61-9.4-2.18-16-3.48-6.6-1.31-14.59-2.65-17.75-2.99-3.16-0.34-5.98-1.07-6.25-1.62-0.33-0.65-21.98-1-61.93-1-48.27 0-61.52 0.27-61.84 1.25z"/>
		<path id="Path 1" class="s1" d="m388.5 45.09c-7.7 2.15-19.63 5.76-26.5 8.03-6.88 2.27-19.25 6.82-27.5 10.11-8.25 3.29-23.77 10.26-34.5 15.49-10.73 5.22-26.25 13.56-34.5 18.52-8.25 4.96-21.3 13.54-29 19.08-7.7 5.53-17.15 12.54-21 15.56-3.85 3.02-11.28 9.09-16.5 13.5-5.22 4.4-12.88 11.18-17 15.05-4.13 3.88-10.61 10.2-14.41 14.06-3.81 3.86-10.33 10.86-14.5 15.57-4.18 4.71-8.72 9.88-10.11 11.5-1.38 1.62-8.17 10.14-15.07 18.94-6.9 8.8-13.87 17.92-15.48 20.27-1.61 2.34-2.71 4.46-2.43 4.71 0.28 0.25 6.8-1.1 14.5-2.99 7.7-1.88 19.18-4.55 25.5-5.91 6.32-1.36 19.15-4.27 28.5-6.45 9.35-2.18 17.99-4.12 19.19-4.3 1.21-0.18 7.96-5.96 15-12.83 7.05-6.88 15.34-14.75 18.43-17.5 3.08-2.75 7.55-6.57 9.93-8.5 2.37-1.93 4.8-3.96 5.38-4.51 0.59-0.56 7.37-5.75 15.07-11.54 7.7-5.78 18.05-13.19 23-16.44 4.95-3.26 15.3-9.56 23-14 7.7-4.44 20.07-11.04 27.5-14.66 7.43-3.63 16.65-7.78 20.5-9.22l7-2.63c11.63-19.52 17.48-29.4 20.5-34.55 3.02-5.16 7.98-13.52 11-18.58 3.02-5.07 6.72-11.27 8.21-13.79 1.49-2.52 2.73-4.92 2.75-5.33 0.02-0.41-0.52-0.71-1.21-0.66-0.69 0.05-7.55 1.84-15.25 4zm249.61 3.16c0.67 1.24 7.81 13.27 15.87 26.75 8.06 13.47 16.53 27.76 18.83 31.75 3.26 5.64 5.02 7.62 7.94 8.91 2.06 0.92 9.6 4.45 16.75 7.85 7.15 3.39 19.08 9.67 26.5 13.95 7.42 4.27 18 10.73 23.5 14.34 5.5 3.61 15.17 10.42 21.5 15.12 6.33 4.71 16 12.31 21.5 16.89 5.5 4.58 18.33 16.57 28.5 26.64 15.06 14.91 19.15 18.43 22 18.93 1.92 0.35 4.62 0.87 6 1.16 1.37 0.29 4.3 0.92 6.5 1.4 2.2 0.47 11.2 2.74 20 5.03 8.8 2.29 18.7 4.78 22 5.53 3.3 0.75 9.26 2.29 13.25 3.43 3.99 1.14 7.25 1.73 7.26 1.32 0-0.41-2.26-3.9-5.02-7.75-2.77-3.85-5.81-8.09-6.76-9.41-0.95-1.33-3-4.03-4.56-6-1.56-1.98-4.26-5.38-6-7.56-1.74-2.18-6.74-8.26-11.11-13.5-4.37-5.24-9.77-11.54-12-14-2.23-2.46-9.46-9.9-16.06-16.54-6.6-6.64-14.71-14.53-18.01-17.53-3.31-3-8.71-7.71-12-10.46-3.3-2.75-6.22-5.24-6.49-5.53-0.27-0.3-2.75-2.32-5.5-4.5-2.75-2.19-5.23-4.21-5.5-4.5-0.27-0.28-3.88-2.97-8-5.97-4.13-3-7.73-5.72-8-6.05-0.27-0.34-5.45-3.82-11.5-7.73-6.05-3.92-11.45-7.52-12-7.99-0.55-0.48-3.02-1.96-5.5-3.3-2.47-1.34-4.72-2.69-5-3.01-0.27-0.32-4.1-2.52-8.5-4.89-4.4-2.38-13.17-6.91-19.5-10.08-6.33-3.17-15.1-7.41-19.5-9.42-4.4-2.02-9.13-4.14-10.5-4.73-1.38-0.59-3.4-1.41-4.5-1.83-1.1-0.42-3.58-1.44-5.5-2.25-1.92-0.82-8.23-3.16-14-5.2-5.77-2.04-11.4-4.07-12.5-4.51-1.1-0.45-6.5-2.2-12-3.89-5.5-1.69-10.81-3.09-11.81-3.1-1.57-0.02-1.65 0.27-0.58 2.23zm-274.23 82.08c-2.55 1.19-6.15 2.79-8 3.56-1.86 0.76-9 4.09-15.88 7.4-6.87 3.32-18.57 9.63-26 14.03-7.43 4.4-18 10.96-23.5 14.58-5.5 3.63-10.23 6.86-10.5 7.19-0.27 0.33-3.87 2.99-8 5.91-4.12 2.92-7.73 5.57-8 5.9-0.27 0.33-2.75 2.4-5.5 4.59-2.75 2.2-6.33 5.13-7.95 6.5-1.62 1.38-4.99 4.31-7.5 6.5-2.5 2.19-8.15 7.44-12.55 11.66-4.4 4.23-10.84 10.3-14.31 13.51l-6.3 5.84c0.83 10.85 1.3 17.6 1.58 22 0.28 4.4 0.95 15.43 1.5 24.5 0.55 9.07 1.46 23.25 2.03 31.5 0.57 8.25 1.22 17.48 1.46 20.5 0.23 3.02 0.76 9.55 1.16 14.5 0.4 4.95 0.67 10.35 0.59 12-0.08 1.65 0.07 4.46 0.32 6.25l0.47 3.25c29.84 9.46 53.57 17.15 72 23.19 18.43 6.04 40.02 13.2 48 15.91l14.5 4.93c5.43-3.82 11.95-8.51 18-12.9 6.05-4.38 14.6-10.56 19-13.73 4.4-3.17 9.8-7.05 12-8.64 2.2-1.58 8.8-6.34 14.67-10.57 5.86-4.23 11.63-8.37 12.82-9.19 1.19-0.82 12.59-9.06 25.33-18.3 12.75-9.24 26.02-18.92 29.49-21.5l6.31-4.7c0.36-135.1 0.2-143.88-1.12-144.24-0.82-0.22-2.4-0.77-3.5-1.22-1.1-0.45-11-4.05-22-8-11-3.95-20.9-7.54-22-7.98-1.1-0.44-4.7-1.79-8-3.01-3.3-1.23-6.9-2.59-8-3.04-1.1-0.45-4.93-1.85-8.5-3.12-3.57-1.26-7.62-2.88-9-3.59-1.37-0.71-3.29-1.29-4.25-1.29-0.96-0.01-1.98-0.46-2.25-1.01-0.27-0.55-1.96-1.29-3.75-1.64-1.79-0.35-3.93-0.99-4.75-1.42-0.82-0.43-4.2-1.76-7.5-2.96-3.3-1.2-6.9-2.6-8-3.12-1.1-0.52-2.74-1.04-3.65-1.15-0.91-0.12-2.04-0.56-2.5-0.99-0.47-0.43-1.53-0.73-2.35-0.67-0.82 0.06-3.58 1.08-6.12 2.28zm288.12 4.29c-9.08 3.51-18.98 7.27-22 8.35-3.02 1.08-10.45 3.78-16.5 5.99-6.05 2.22-11.9 4.47-13 5.01-1.1 0.55-5.83 2.39-10.5 4.09-4.67 1.7-11.2 4.02-14.5 5.16-3.3 1.14-7.12 2.53-8.5 3.09-1.37 0.56-5.87 2.23-10 3.7l-7.5 2.68c-0.77 30.08-0.86 62.66-0.69 91.81l0.32 53c8.81 6.08 13.17 9.13 15.37 10.69 2.2 1.56 10.98 7.96 19.5 14.23 8.52 6.27 34.96 25.39 58.75 42.49l43.25 31.09c25.19-8.58 49.6-16.73 70.5-23.66 20.9-6.92 40.02-13.39 42.5-14.37 2.48-0.98 7.65-2.77 11.5-3.97l7-2.19c1.25-25.82 1.76-34.43 1.94-35.81 0.18-1.37 0.64-9.02 1.04-17 0.39-7.98 0.87-16.52 1.07-19 0.2-2.48 0.83-12.15 1.4-21.5 0.57-9.35 1.35-21.95 1.73-28l0.7-11c-23.93-24.13-33.99-33.8-37.78-37.07-3.8-3.26-7.4-6.4-8-6.98-0.61-0.58-5.15-4.21-10.1-8.07-4.95-3.87-13.5-10.21-19-14.1-5.5-3.89-14.39-9.82-19.75-13.18-5.36-3.35-9.86-6.09-10-6.07-0.14 0.02-4.75-2.5-10.25-5.59-5.5-3.09-16.86-8.96-25.25-13.03-8.39-4.08-15.59-7.36-16-7.3-0.41 0.07-8.17 2.99-17.25 6.51zm-451.7 292.78c-0.44 0.78-4.56 5.39-9.17 10.26-4.6 4.86-13.6 14.24-20 20.84-6.39 6.61-18.6 19.42-27.13 28.48-8.53 9.05-18.98 20.07-23.24 24.49-7.46 7.74-7.72 8.18-7.26 12.03 0.26 2.2 1.17 10.53 2.03 18.5 0.85 7.98 2.23 17.88 3.07 22 0.83 4.13 2.4 11.55 3.48 16.5 1.07 4.95 2.66 11.92 3.52 15.5 0.86 3.58 2.9 11 4.55 16.5 1.64 5.5 3.38 10.9 3.86 12 0.48 1.1 2.51 6.5 4.5 12 1.99 5.5 5.21 13.83 7.16 18.5 1.95 4.67 7.03 15.48 11.3 24 4.26 8.53 9.08 17.75 10.71 20.5l2.97 5c28.56 7.35 41.35 10.57 46.85 11.89 5.5 1.32 26.99 6.72 47.75 12.01 20.76 5.28 38.09 9.62 38.5 9.64 0.41 0.02 4.42-5.04 8.9-11.25 4.49-6.21 14.26-19.84 21.72-30.29 7.46-10.45 15.18-21.25 17.17-24 1.98-2.75 7.6-10.62 12.48-17.5 4.88-6.87 10.36-14.65 12.18-17.29 1.81-2.63 5.2-7.36 7.52-10.5 2.33-3.14 4.24-6.61 4.25-7.71 0.01-1.1-4.44-15.05-9.88-31-5.45-15.95-13.35-38.9-17.57-51-4.23-12.1-9.48-27.17-11.67-33.5-2.2-6.32-5.65-16.41-7.67-22.42-2.68-7.94-4.23-11.12-5.68-11.66-1.1-0.41-15.27-5.1-31.5-10.42-16.23-5.32-30.18-9.84-31-10.05-0.82-0.2-8.48-2.69-17-5.52-8.53-2.83-23.38-7.82-33-11.09-9.63-3.27-18.49-6.15-19.7-6.4-1.26-0.26-2.53 0.14-3 0.96zm626.7 1.17c-3.58 1.31-27.65 9.4-53.5 17.99-25.85 8.58-47.9 16-49 16.5-1.1 0.49-6.28 2.25-11.5 3.91-5.23 1.67-9.99 3.36-10.58 3.78-0.6 0.41-2.92 6.38-5.16 13.25-2.24 6.88-6.85 20.38-10.24 30-3.39 9.63-6.76 19.3-7.49 21.5-0.73 2.2-6.36 18.63-12.51 36.5-6.15 17.88-11.64 34.08-12.2 36-0.55 1.92-1.68 4.85-2.5 6.5-0.87 1.74-1.25 4.16-0.91 5.75 0.32 1.51 1.65 3.99 2.94 5.5 1.3 1.51 5.9 7.92 10.22 14.25 4.33 6.33 12.02 17.58 17.1 25 5.08 7.42 13.1 19.13 17.82 26 4.71 6.88 12.65 18.35 17.64 25.5 4.98 7.15 10.25 14.9 11.71 17.22 1.67 2.64 3.41 4.22 4.66 4.24 1.1 0.01 5.6-0.91 10-2.05 4.4-1.13 9.8-2.46 12-2.94 2.2-0.48 7.37-1.75 11.5-2.83 4.12-1.08 17.17-4.47 29-7.53 11.82-3.06 24.65-6.41 28.5-7.44 3.85-1.03 12.62-3.32 19.5-5.08 6.87-1.76 14.07-3.59 16-4.07 2.07-0.51 4.29-2.02 5.44-3.69 1.07-1.56 6.27-11.38 11.57-21.83 5.29-10.45 12.11-25.3 15.15-33 3.04-7.7 8.03-21.87 11.09-31.5 3.06-9.62 6.7-22.45 8.08-28.5 1.38-6.05 2.85-12.8 3.25-15 0.41-2.2 0.87-4.67 1.03-5.5 0.15-0.83 0.74-4.2 1.31-7.5 0.57-3.3 1.72-11.17 2.55-17.5 0.83-6.33 1.51-14.2 1.51-17.5-0.01-5.99-0.02-6.01-6.25-12.52-3.42-3.58-10.73-11.44-16.23-17.46-5.5-6.01-11.8-12.8-14-15.07-2.2-2.27-8.5-8.99-14-14.93-5.5-5.94-13.09-14-16.87-17.91-3.77-3.91-9.62-10.16-13-13.9-3.37-3.73-6.36-6.72-6.63-6.65-0.28 0.07-3.43 1.2-7 2.51zm-794.39 26.93c-0.32 2.2-1.09 9.85-1.71 17-0.62 7.15-1.18 22.9-1.26 35-0.08 12.1 0.22 28.53 0.67 36.5 0.44 7.98 1.44 19.9 2.23 26.5 0.78 6.6 1.85 14.7 2.37 18 0.52 3.3 1.43 8.92 2.02 12.5 0.59 3.58 1.49 8.75 2.01 11.5 0.51 2.75 2.77 12.2 5.02 21 2.24 8.8 5.89 21.63 8.11 28.5 2.22 6.88 4.3 13.17 4.63 14 0.33 0.83 0.73 1.95 0.89 2.5 0.16 0.55 1.62 4.38 3.25 8.5 1.64 4.13 4.38 10.88 6.11 15 1.73 4.13 6.03 13.35 9.56 20.5 3.53 7.15 7.93 15.7 9.77 19 1.84 3.3 5.51 9.6 8.16 14 2.65 4.4 6.88 11.15 9.4 15 2.52 3.85 4.94 7.11 5.37 7.25 0.44 0.14 0.79 0.7 0.79 1.25 0 0.55 3.51 5.84 7.79 11.75 4.29 5.91 8.54 11.65 9.45 12.75 0.91 1.1 5.61 6.91 10.45 12.91 4.85 6 9.77 12.08 10.93 13.5 2.02 2.46 2.16 2.49 2.68 0.59 0.3-1.1 0.87-10.1 1.26-20 0.39-9.9 0.82-19.58 0.94-21.5 0.13-1.92 0.5-5.52 0.82-8 0.33-2.47 0.84-15.08 1.14-28 0.29-12.92 0.83-26.87 1.18-31 0.36-4.12 0.39-8.62 0.06-10-0.33-1.37-1.42-3.4-2.42-4.5-0.99-1.1-5.71-9.87-10.48-19.5-4.77-9.62-9.43-19.3-10.35-21.5-0.93-2.2-4.48-10.97-7.89-19.5-3.42-8.52-7.67-20.45-9.46-26.5-1.78-6.05-3.84-13.02-4.58-15.5-0.73-2.47-2.93-11.7-4.88-20.5-1.94-8.8-4.25-20.72-5.13-26.5-0.87-5.77-1.89-15.67-2.25-22l-0.66-11.5c-6.11-6.97-10.26-11.7-13.16-15-2.9-3.3-6.25-7.12-7.44-8.5-1.19-1.37-4.94-5.6-8.33-9.39-3.39-3.79-7.97-8.78-10.17-11.08-2.2-2.3-6.91-7.53-10.47-11.61-3.56-4.08-8.58-9.67-11.16-12.42l-4.68-5zm948.64 14.82c-5.03 6.15-15.92 19.06-24.2 28.68-8.27 9.63-16.12 18.85-17.43 20.5-1.87 2.34-2.51 4.64-2.95 10.5-0.31 4.13-1.06 11.55-1.65 16.5-0.6 4.95-1.78 12.83-2.61 17.5-0.84 4.67-1.93 10.75-2.43 13.5-0.51 2.75-2.02 9.5-3.36 15-1.34 5.5-3.33 13.15-4.42 17-1.09 3.85-2.67 9.25-3.51 12-0.85 2.75-2.64 8.15-3.99 12-1.34 3.85-3.66 10.15-5.14 14-1.49 3.85-3.07 7.9-3.52 9-0.46 1.1-1.6 3.8-2.54 6-0.95 2.2-5.36 11.42-9.8 20.5-4.45 9.08-8.45 16.61-8.89 16.75-0.44 0.14-0.8 0.7-0.8 1.25 0 0.55-1.41 3.36-3.13 6.25l-3.13 5.25c0.98 32.55 1.5 49.2 1.77 58 0.28 8.8 0.77 19.15 1.1 23 0.32 3.85 0.55 10.15 0.51 14-0.05 3.85 0.17 8.58 0.49 10.5l0.57 3.5c3.76-4.65 5.69-6.9 6.71-8 1.03-1.1 5.74-7.06 10.49-13.25 4.74-6.19 11.2-15.19 14.37-20 3.16-4.81 5.97-8.97 6.25-9.25 0.27-0.27 1.03-1.4 1.69-2.5 0.66-1.1 4.99-8.3 9.61-16 4.63-7.7 11.58-20.3 15.47-28 3.88-7.7 9.18-19.17 11.77-25.5 2.6-6.33 5.82-14.42 7.16-18 1.34-3.58 3.27-8.97 4.3-12 1.02-3.02 3.88-12.47 6.35-21 2.46-8.52 5.83-21.35 7.47-28.5 1.65-7.15 3.92-19.08 5.04-26.5 1.13-7.42 2.72-19.35 3.54-26.5 0.83-7.15 1.82-20.2 2.21-29 0.39-8.8 0.69-17.35 0.66-19-0.03-1.65-0.57-12.9-1.2-25-0.64-12.1-1.4-24.47-1.71-27.5-0.3-3.02-0.87-5.81-1.25-6.18-0.39-0.38-4.83 4.35-9.87 10.5zm-548.92 187.93c-1.58 1.79-4.86 6.17-7.29 9.75-2.43 3.58-8.27 11.78-12.98 18.23-4.7 6.45-10.7 14.77-13.32 18.5-2.62 3.72-10.5 14.87-17.52 24.77-7.01 9.9-16.44 22.95-20.94 29-4.51 6.05-8.2 11.45-8.21 12-0.01 0.55 1.94 4.38 4.32 8.5 2.39 4.13 6.24 11.1 8.57 15.5 2.33 4.4 5.24 9.8 6.47 12 1.23 2.2 4.84 8.73 8.02 14.5 3.18 5.78 6.91 12.53 8.29 15 1.39 2.48 5.93 10.8 10.11 18.5 4.17 7.7 7.94 14.11 8.37 14.25 0.43 0.14 0.79 0.7 0.79 1.25 0 0.55 2.47 5.28 5.5 10.5 3.02 5.23 5.5 9.95 5.5 10.5 0 0.55 1.23 1.48 2.75 2.08 1.51 0.59 5 1.49 7.75 2.01 2.75 0.51 6.57 1.17 8.5 1.46 1.92 0.3 6.2 0.97 9.5 1.5 3.3 0.52 8.7 1.4 12 1.94 3.3 0.54 8.02 1.25 10.5 1.57 2.47 0.32 9.45 0.96 15.5 1.41 6.05 0.45 23.37 0.69 38.5 0.54 17.74-0.17 32.28-0.85 41-1.91 7.42-0.91 18.67-2.56 25-3.68 6.32-1.11 15.32-2.88 20-3.93 4.67-1.04 8.61-2.25 8.75-2.69 0.14-0.44 3.25-5.97 6.9-12.3 3.66-6.33 13.84-24.33 22.62-40 8.79-15.67 18.34-32.77 21.23-38 2.89-5.22 7.79-13.77 10.88-19 3.1-5.22 5.63-10.06 5.62-10.75 0-0.69-2.81-5.41-6.24-10.5-3.42-5.09-6.5-9.47-6.85-9.75-0.34-0.27-1.89-2.52-3.44-5-1.55-2.47-3.31-5.03-3.9-5.67-0.59-0.64-4.59-6.27-8.89-12.5-4.3-6.23-12.5-18.08-18.23-26.33-5.72-8.25-13.91-20.07-18.18-26.27-4.28-6.2-9.01-13.06-10.52-15.25l-2.75-3.98c-130.59 0.29-169.02 0.06-169.66-0.31-0.65-0.39-2.41 0.73-4.02 2.56zm-14.46 252.29c-0.75 0.84-1.93 1.41-2.63 1.26-0.69-0.14-6.43 2.31-12.75 5.47-6.32 3.15-11.71 5.73-11.98 5.73-0.28 0-4.44 1.85-9.25 4.11-4.82 2.25-13.25 6.25-18.75 8.89-5.5 2.63-14.05 6.65-19 8.94-4.95 2.29-11.59 5.38-14.74 6.86-3.16 1.49-5.74 3.04-5.75 3.45-0.01 0.41 1.67 1.49 3.74 2.39 2.06 0.9 4.65 2.01 5.75 2.47 1.1 0.46 5.37 2.15 9.5 3.75 4.12 1.61 12.22 4.5 18 6.42 5.77 1.92 14.55 4.62 19.5 6.01 4.95 1.38 14.62 3.88 21.5 5.54 6.87 1.66 14.75 3.48 17.5 4.03 2.75 0.56 7.92 1.49 11.5 2.08 3.57 0.58 11.45 1.73 17.5 2.55 6.05 0.82 13.7 1.7 17 1.95 3.3 0.26 11.62 0.94 18.5 1.52 6.87 0.59 23.97 0.85 38 0.6 14.02-0.26 27.97-0.73 31-1.04 3.02-0.32 9.1-1.03 13.5-1.58 4.4-0.55 11.37-1.46 15.5-2.02 4.12-0.56 10.2-1.47 13.5-2.02 3.3-0.54 8.47-1.47 11.5-2.05 3.02-0.59 6.62-1.42 8-1.85 1.37-0.43 5.2-1.33 8.5-2 3.3-0.67 9.37-2.12 13.5-3.21 4.12-1.1 8.62-2.4 10-2.88 1.37-0.49 6.55-2.03 11.5-3.44 4.95-1.4 11.25-3.4 14-4.44 2.75-1.05 10.62-4.03 17.5-6.62 6.87-2.6 13.4-5.2 14.5-5.78 1.1-0.58 2.3-1.08 2.66-1.09 0.37-0.02 1.01-0.38 1.42-0.79 0.41-0.41 0.22-0.75-0.42-0.75-0.64 0-1.5 0.04-1.91 0.09-0.42 0.04-0.98-0.36-1.25-0.89-0.28-0.53-6.24-3.72-13.25-7.08-7.02-3.37-12.98-6.12-13.25-6.12-0.28 0-9.39-4.32-20.25-9.59-10.87-5.28-23.13-11.23-27.25-13.22-4.13-1.99-7.62-3.97-7.75-4.41-0.14-0.43-1.38-0.78-2.75-0.78-1.38 0-2.62-0.53-2.75-1.17-0.18-0.83-4.92-0.24-16.25 2-8.8 1.74-19.15 3.61-23 4.16-3.85 0.54-8.13 1.2-9.5 1.45-1.38 0.25-8.8 0.95-16.5 1.54-7.7 0.6-24.13 1.01-36.5 0.92-12.38-0.1-27-0.54-32.5-0.98-5.5-0.44-12.03-0.9-14.5-1.02-2.48-0.13-5.18-0.55-6-0.94-0.83-0.4-4.88-1.06-9-1.48-4.13-0.42-8.29-0.81-9.25-0.87-0.97-0.06-1.75-0.45-1.75-0.86 0-0.41-1.58-0.75-3.5-0.75-1.93 0-4.29-0.42-5.25-0.93-0.97-0.5-3.73-1.04-6.14-1.2-2.41-0.15-4.55-0.63-4.75-1.07-0.2-0.44-0.99-0.8-1.75-0.8-0.77 0-2 0.69-2.75 1.54z"/>
		<path id="Path 2" class="s2" d="m473 36.53c-9.07 0.78-20.55 2.09-25.5 2.92-6.13 1.03-9.42 2.08-10.32 3.28-0.73 0.97-6.19 9.87-12.12 19.77-5.94 9.9-13.33 22.61-16.43 28.25-3.1 5.64-5.52 10.73-5.38 11.32 0.14 0.59 4.3 2.66 9.25 4.6 4.95 1.93 12.38 4.75 16.5 6.26 4.12 1.5 18.98 7.05 33 12.32 14.02 5.27 29.55 11.01 34.5 12.76 4.95 1.75 11.81 4.26 15.25 5.59 3.44 1.32 6.81 2.41 7.5 2.42 0.69 0.01 11.38-3.56 23.75-7.95 12.38-4.38 24.3-8.75 26.5-9.7 2.2-0.95 4.45-1.82 5-1.94 0.55-0.12 5.5-1.89 11-3.93 5.5-2.04 13.83-5.18 18.5-6.99 4.67-1.81 14.01-5.25 20.75-7.65 6.74-2.4 12.25-4.81 12.23-5.36-0.01-0.55-5.8-10.9-12.87-23-7.07-12.1-14.71-25.26-16.98-29.25-3.89-6.83-4.33-7.25-7.63-7.25-1.92 0-4.29-0.41-5.25-0.92-0.96-0.51-5.58-1.41-10.25-2.01-4.67-0.6-13.45-1.81-19.5-2.7-7.79-1.14-20.33-1.7-43-1.93-21.73-0.22-37.29 0.13-48.5 1.09zm40.29 207.06l0.21 66.68 12 0.61c1.16-9.59 1.24-20.71 0.92-30.88-0.32-10.18-0.66-37.4-0.75-60.5l-0.17-42-12.42-0.6zm-351.79 19.03c-7.7 1.89-16.02 3.86-18.5 4.39-2.47 0.52-8.32 1.81-13 2.86-4.67 1.04-13.22 2.92-19 4.17-5.77 1.24-11.11 2.76-11.86 3.37-0.75 0.6-4.66 6.95-8.69 14.1-4.03 7.15-10.32 19.75-13.99 28-3.67 8.25-8.6 20.4-10.96 27-2.36 6.6-4.79 13.57-5.39 15.5-0.6 1.92-2.42 8-4.04 13.5-1.63 5.5-4.08 14.5-5.45 20-1.37 5.5-3.22 14.05-4.11 19l-1.62 9c4.45 4.65 13.63 14.77 23.28 25.5 9.64 10.72 20.5 22.65 24.14 26.5l6.61 7c18.95-19.38 29.43-30.18 35.52-36.51 6.08-6.32 14.89-15.55 19.56-20.5 4.68-4.95 13.56-14.51 19.75-21.25l11.25-12.24c-0.07-12.79-0.5-22.58-1.01-30-0.51-7.43-1.65-24.98-2.53-39-0.88-14.03-2.13-34.02-2.78-44.42-0.67-10.8-1.61-19.02-2.18-19.15-0.55-0.13-7.3 1.3-15 3.18zm696.16 6.65c-0.35 3.98-1.08 16.24-1.64 27.24-0.55 11-1.24 22.7-1.53 26-0.29 3.3-0.72 8.92-0.95 12.5-0.23 3.57-0.7 12.57-1.04 20-0.35 7.42-1 18.45-1.45 24.5-0.7 9.27-0.58 11.39 0.74 13.5 0.87 1.37 4.96 6.1 9.09 10.5 4.13 4.4 11.33 12.05 15.99 17 4.66 4.95 12.11 12.82 16.55 17.5 4.45 4.68 10.99 11.65 14.55 15.5 3.55 3.85 11.09 11.83 16.75 17.75l10.28 10.75c8.77-9.69 12.48-14.08 13.91-16 1.42-1.93 3.72-4.66 5.09-6.08 1.38-1.42 3.63-4.05 5-5.84 1.38-1.79 3.18-3.97 4-4.85 0.83-0.88 4.76-5.68 8.75-10.66 3.98-4.99 7.24-9.97 7.23-11.07-0.01-1.1-0.65-5.83-1.44-10.5-0.78-4.68-2.11-12.1-2.96-16.5-0.85-4.4-3.37-14.53-5.62-22.5-2.24-7.98-5.9-19.9-8.14-26.5-2.23-6.6-6.07-16.95-8.53-23-2.45-6.05-7.39-16.85-10.96-24-3.58-7.15-8.04-15.82-9.91-19.25-1.88-3.44-4.21-6.45-5.17-6.69-0.96-0.24-6.02-1.43-11.25-2.65-5.22-1.21-18.27-4.35-29-6.98-10.72-2.62-20.17-4.99-21-5.27-0.82-0.27-2.67-0.75-4.1-1.07-2.58-0.56-2.62-0.49-3.24 6.67zm-347.17 80.5c-2.76 0.96-7.48 3.52-10.5 5.7-3.02 2.17-10.44 7.61-16.49 12.07-6.05 4.47-17.97 13.23-26.5 19.47-8.52 6.24-28.32 20.54-44 31.77-15.67 11.23-29.98 21.84-31.79 23.57-1.81 1.74-4.16 4.96-5.23 7.16-1.29 2.64-1.95 6.12-1.96 10.25-0.02 5.16 1.27 10.02 7.37 28 4.07 11.96 11.53 33.67 16.59 48.25 5.05 14.57 12.32 35.72 16.15 47 3.82 11.27 8.26 22.52 9.86 25 1.59 2.47 4.16 5.25 5.71 6.18 1.54 0.93 4.83 2.43 7.3 3.33 4.03 1.47 12.5 1.64 81 1.65 42.08 0 78.3-0.32 80.5-0.72 2.2-0.39 5.58-1.51 7.5-2.48 1.93-0.97 4.66-2.82 6.07-4.11 1.42-1.3 3.4-3.93 4.41-5.85 1.01-1.93 4.87-12.5 8.58-23.5 3.7-11 9.97-29.23 13.91-40.5 3.94-11.28 11.42-32.88 16.62-48 8.24-23.96 9.45-28.34 9.41-34-0.03-4.09-0.72-7.99-1.87-10.5-1-2.2-3.36-5.5-5.23-7.34-1.87-1.83-7.67-6.31-12.9-9.95-5.22-3.65-16.25-11.56-24.5-17.59-8.25-6.03-22.2-16.14-31-22.47-8.8-6.33-22.97-16.75-31.5-23.15-8.52-6.4-17.3-12.73-19.5-14.06-2.2-1.34-4.34-2.32-4.75-2.19-0.41 0.14-0.75-0.2-0.75-0.75 0-0.55-1.91-1.6-4.25-2.33-2.34-0.73-6.27-1.4-8.75-1.48-2.47-0.09-6.75 0.62-9.51 1.57zm-295.11 49.4c-0.61 2.38-1.4 5.12-1.75 6.09-0.52 1.46 0.57 2.1 6.62 3.88 3.99 1.18 7.7 2.41 8.25 2.73 0.55 0.32 1.45 0.65 2 0.73 0.55 0.08 22.6 7.22 49 15.85 26.4 8.64 50.25 16.38 53 17.21 2.75 0.82 5.04 1.35 5.1 1.17 0.05-0.18 0.86-2.8 1.79-5.82 0.94-3.03 1.35-5.79 0.91-6.13-0.44-0.34-4.4-1.77-8.8-3.16-4.4-1.4-17.9-5.76-30-9.7-12.1-3.94-22.67-7.42-23.5-7.74-0.82-0.31-2.4-0.75-3.5-0.97-1.1-0.21-3.35-1.05-5-1.87-1.65-0.81-3.45-1.46-4-1.45-0.55 0.02-8.42-2.47-17.5-5.53-9.07-3.06-18.75-6.25-21.5-7.08-2.75-0.83-6.12-1.74-7.5-2.03-2.25-0.47-2.61-0.09-3.62 3.82zm549.12 13.52c-29.15 9.67-56.26 18.64-60.25 19.95l-7.25 2.37c2.18 4.26 3.08 7.18 3.4 9.25 0.33 2.06 1.05 3.75 1.6 3.75 0.55 0 1.23-0.45 1.5-1 0.28-0.55 1.96-1.29 3.75-1.63 1.79-0.35 28.23-8.96 58.75-19.13 30.53-10.17 55.81-18.77 56.19-19.12 0.38-0.34-0.07-3.22-1-6.39-0.93-3.18-2.14-5.74-2.69-5.7-0.55 0.03-24.85 7.98-54 17.65zm-365.04 230.57c-1.05 1.78-5.25 7.75-9.34 13.25-4.09 5.5-7.81 10.11-8.28 10.25-0.46 0.13-0.84 0.7-0.84 1.25 0 0.55-5.49 8.76-12.2 18.25-6.71 9.48-17.15 24.22-23.22 32.75-6.06 8.52-12.72 17.75-14.79 20.5-2.08 2.75-3.77 5.45-3.76 6 0.01 0.55 2.31 2.57 5.1 4.5 4.22 2.9 5.22 3.24 5.89 2 0.45-0.83 9.69-13.88 20.53-29 10.85-15.13 21.99-30.65 24.77-34.5 2.78-3.85 9.69-13.53 15.35-21.5 5.67-7.98 11.18-15.63 12.25-17l1.95-2.5c-7.65-5.82-10.24-7.5-10.69-7.5-0.45 0-1.68 1.46-2.72 3.25zm231.54 0.72l-4.5 3.88c4.65 5.88 10.05 13.5 15 20.72 4.95 7.22 13.28 19.32 18.5 26.88 5.23 7.56 16.2 23.27 24.39 34.9 8.18 11.63 15.26 21.6 15.73 22.15 0.55 0.64 1.67 0.23 3.12-1.13 1.24-1.17 3.27-2.63 4.51-3.25 1.24-0.62 2.26-1.69 2.27-2.37 0-0.69-1.94-3.95-4.32-7.25-2.38-3.3-12.96-18.49-23.51-33.75-10.56-15.27-19.19-27.98-19.19-28.25 0-0.28-0.56-1.13-1.25-1.89-0.69-0.76-6.42-8.84-12.75-17.95-6.32-9.11-11.95-16.57-12.5-16.57-0.55-0.01-3.02 1.74-5.5 3.88zm-448.45 113.78c-0.41 7.56-0.86 16.67-0.99 20.25-0.14 3.57-0.88 21.67-1.65 40.21l-1.41 33.71c13.83 12.85 20.84 19.05 24.5 22.08 3.66 3.02 8.19 6.72 10.08 8.22 1.88 1.51 7.25 5.59 11.92 9.08 4.68 3.49 14.13 10.13 21 14.75 6.88 4.63 13.4 8.9 14.5 9.49 1.1 0.59 6.05 3.47 11 6.39 4.95 2.92 12.49 7.05 16.75 9.19 4.26 2.13 8.31 3.89 9 3.9 0.69 0.01 7.33-2.72 14.75-6.08 7.43-3.36 15.08-6.82 17-7.7 1.93-0.88 12.28-5.82 23-10.99 10.73-5.17 21.66-10.37 24.29-11.57 2.64-1.2 4.78-2.41 4.77-2.68-0.02-0.28-1.3-2.98-2.85-6-1.56-3.03-5.9-11.13-9.65-18-3.75-6.88-7.94-14.53-9.29-17-1.36-2.48-6.02-10.8-10.35-18.5-4.33-7.7-7.89-14.57-7.9-15.25-0.01-0.69-0.47-1.25-1.02-1.25-0.55 0-1.11-0.57-1.25-1.25-0.14-0.69-5.2-10.13-11.25-20.97-6.05-10.85-11.67-20-12.5-20.34-0.82-0.35-5.77-1.74-11-3.1-5.22-1.35-22.77-5.85-39-9.99-16.22-4.15-36.7-9.3-45.5-11.45-8.8-2.15-20.08-5.03-25.08-6.41-4.99-1.37-9.54-2.49-10.1-2.49-0.62 0-1.33 5.48-1.77 13.75zm662.45-12.1c-2.47 0.79-14.85 4.1-27.5 7.35-12.65 3.24-25.47 6.56-28.5 7.37-3.02 0.81-16.52 4.21-30 7.57-13.47 3.35-27.2 6.8-30.5 7.67-3.3 0.87-7.02 2.55-8.27 3.74-1.26 1.18-2.27 2.48-2.25 2.9 0.01 0.41-7.24 13.68-16.11 29.5-8.87 15.81-21.2 37.75-27.39 48.75-6.2 11-12.26 21.8-13.47 24-1.22 2.2-3.18 5.69-4.36 7.75-1.4 2.45-1.8 4.07-1.15 4.66 0.55 0.49 5.95 3.38 12 6.41 6.05 3.03 20.9 10.3 33 16.15 12.1 5.84 23.91 11.62 26.24 12.83 3.32 1.71 4.63 1.95 6 1.09 0.97-0.61 5.81-3.28 10.76-5.93 4.95-2.66 11.59-6.55 14.75-8.65 3.16-2.1 5.98-3.81 6.25-3.81 0.28 0 6.8-4.28 14.5-9.5 7.7-5.23 14.45-9.5 15-9.5 0.55 0 1.34-0.61 1.75-1.35 0.41-0.74 2.1-2.19 3.75-3.23 1.65-1.04 3.45-2.39 4-3 0.55-0.61 5.49-4.67 10.97-9.02 5.49-4.35 15.39-12.84 22-18.88 6.62-6.04 13.52-12.56 15.34-14.5l3.32-3.52c-1.06-27.13-1.87-49.14-2.5-66.42-0.69-19.19-1.52-31.51-2.13-31.65-0.55-0.12-3.02 0.42-5.5 1.22z"/>
		<path id="Path 3" fill-rule="evenodd" class="s3" d="m386.5 44.41c-8.25 2.32-21.07 6.3-28.5 8.83-7.43 2.54-16.43 5.79-20 7.22-3.57 1.44-9.88 4.03-14 5.76-4.13 1.73-14.7 6.66-23.5 10.95-8.8 4.3-18.7 9.3-22 11.11-3.3 1.81-8.93 5.04-12.5 7.19-3.57 2.14-9.65 5.94-13.5 8.44-3.85 2.49-10.82 7.23-15.5 10.54-4.68 3.3-9.18 6.55-10 7.22-0.82 0.68-6.22 4.88-12 9.34-5.78 4.46-11.86 9.32-13.52 10.8-1.67 1.48-6.17 5.36-10 8.62-3.84 3.25-14.41 13.39-23.48 22.52-9.07 9.13-17.4 17.72-18.5 19.09-1.1 1.36-5.15 6.3-8.99 10.97-3.85 4.67-7.45 9.04-8 9.71-0.56 0.66-1.48 1.79-2.06 2.5-0.58 0.7-5.11 6.68-10.07 13.28-4.95 6.6-9.77 13.13-10.7 14.5-0.93 1.38-1.69 2.84-1.69 3.25 0.01 0.41 1.92 0.49 4.26 0.17 2.34-0.32 5.6-0.98 7.25-1.47 1.65-0.49 6.83-1.78 11.5-2.87 4.68-1.1 11.88-2.73 16-3.63 4.13-0.91 13.8-3.14 21.5-4.97 7.7-1.83 17.82-4.07 22.5-4.98l8.5-1.64c19.4-18.88 29.75-28.43 35.51-33.41 5.77-4.98 16.12-13.37 22.99-18.63 6.88-5.27 18.57-13.62 26-18.57 7.43-4.94 17.77-11.45 23-14.47 5.23-3.02 13.21-7.46 17.75-9.88 4.54-2.42 8.03-4.51 7.75-4.65-0.27-0.14-3.99 1.62-8.25 3.9-4.26 2.28-12.48 6.86-18.25 10.16-5.77 3.31-15.67 9.43-21.99 13.6-6.31 4.18-17.61 12.31-25.1 18.09-7.49 5.78-15.54 12.07-17.9 14-2.35 1.93-6.81 5.75-9.89 8.5-3.09 2.75-11.38 10.63-18.43 17.5-7.04 6.88-13.79 12.65-15 12.83-1.2 0.18-9.84 2.12-19.19 4.3-9.35 2.18-22.18 5.09-28.5 6.45-6.32 1.36-17.8 4.03-25.5 5.91-7.7 1.89-14.22 3.24-14.5 2.99-0.28-0.25 0.82-2.37 2.43-4.71 1.61-2.35 8.58-11.47 15.48-20.27 6.9-8.8 13.69-17.32 15.07-18.94 1.39-1.62 5.93-6.79 10.11-11.5 4.17-4.71 10.69-11.71 14.5-15.57 3.8-3.86 10.29-10.18 14.41-14.06 4.13-3.87 11.78-10.65 17-15.05 5.22-4.41 12.65-10.48 16.5-13.5 3.85-3.02 13.3-10.03 21-15.56 7.7-5.54 20.75-14.12 29-19.08 8.25-4.96 23.77-13.3 34.5-18.52 10.73-5.23 26.25-12.2 34.5-15.49 8.25-3.29 21.3-8.04 29-10.55 7.7-2.51 19.9-6.2 27.1-8.19 7.21-2 13.4-3.37 13.75-3.06 0.36 0.31-0.15 2.03-1.14 3.82-0.98 1.79-4.69 8.09-8.25 14.01-3.55 5.92-8.94 14.99-11.96 20.16-3.02 5.17-8.87 15.06-13 21.99l-7.5 12.59c-10.85 4.06-16.35 6.42-19.21 7.87-2.87 1.45-5.12 2.74-5 2.88 0.11 0.14 4.48-1.57 9.71-3.8 5.23-2.23 10.85-4.64 12.5-5.37 2.25-1 4.91-4.53 10.67-14.2 4.22-7.09 13.69-23 21.06-35.38 7.36-12.37 13.7-23.29 14.08-24.25 0.56-1.42 0.17-1.73-2.06-1.66-1.51 0.05-9.5 1.99-17.75 4.32zm248.5 0.09c0 0.28 4.88 8.71 10.84 18.75 5.97 10.04 12.27 20.61 14 23.5 1.74 2.89 3.39 5.25 3.66 5.25 0.27 0-0.36-1.46-1.42-3.25-1.06-1.79-7.13-12.02-13.49-22.75-7.13-12.01-11.1-19.62-10.33-19.82 0.68-0.18 5.63 1.05 10.99 2.75 5.36 1.69 10.31 3.08 11 3.1 0.69 0.01 1.02-0.19 0.75-0.46-0.27-0.26-5.9-2.07-12.5-4.03-6.6-1.95-12.34-3.54-12.75-3.54-0.41 0-0.75 0.23-0.75 0.5zm27.39 8.46c0.34 0.57 1.17 1.03 1.86 1.02 0.69-0.01 6.2 1.79 12.25 4.01 6.05 2.21 12.01 4.47 13.25 5.01 1.24 0.55 3.38 1.45 4.75 2 1.38 0.55 3.51 1.42 4.75 1.93 1.24 0.52 5.85 2.58 10.25 4.6 4.4 2.01 13.17 6.25 19.5 9.42 6.33 3.17 15.1 7.7 19.5 10.08 4.4 2.37 8.23 4.57 8.5 4.89 0.28 0.32 2.53 1.67 5 3.01 2.48 1.34 4.95 2.82 5.5 3.3 0.55 0.47 5.95 4.07 12 7.99 6.05 3.91 11.23 7.39 11.5 7.73 0.27 0.33 3.88 3.05 8 6.05 4.13 3 7.73 5.69 8 5.97 0.27 0.29 2.75 2.31 5.5 4.5 2.75 2.18 5.23 4.2 5.5 4.5 0.27 0.29 3.19 2.78 6.49 5.53 3.29 2.75 8.69 7.46 12 10.46 3.3 3 11.41 10.88 18.01 17.5 6.6 6.62 15 15.42 18.66 19.54 3.67 4.13 9.74 11.32 13.5 15.99 3.76 4.67 7.65 9.39 8.63 10.5 0.98 1.1 3.46 4.35 5.5 7.21 2.04 2.86 4.05 5.23 4.46 5.25 0.41 0.03-2.26-3.89-5.95-8.7-3.68-4.81-8.52-11-10.75-13.75-2.23-2.75-5.22-6.35-6.64-8-1.43-1.65-6.65-7.5-11.61-13-4.96-5.5-15.04-15.85-22.41-23-7.37-7.15-18.79-17.5-25.39-22.99-6.6-5.5-12.23-10.26-12.5-10.59-0.27-0.32-3.87-3.02-8-5.98-4.13-2.97-8.17-6.04-9-6.83-0.83-0.8-7.13-5.11-14-9.58-6.88-4.48-15.88-10.18-20-12.68-4.13-2.49-10.88-6.29-15-8.44-4.13-2.15-7.61-4.25-7.75-4.66-0.14-0.41-0.81-0.75-1.5-0.74-0.69 0.01-2.48-0.56-3.99-1.25-1.51-0.69-2.75-1.6-2.75-2.01-0.01-0.41-0.46-0.75-1.01-0.75-0.55 0-5.61-2.2-11.25-4.89-5.64-2.69-14.3-6.56-19.25-8.6-4.95-2.04-13.5-5.39-19-7.45-5.5-2.06-11.29-4.06-12.86-4.44-1.87-0.46-2.65-0.34-2.25 0.34zm10.63 55.29c-0.01 0.41 0.84 2.21 1.89 4 1.06 1.79 2.97 3.57 4.25 3.95 1.29 0.39 2.57 0.51 2.84 0.27 0.27-0.24-0.63-0.83-2-1.31-1.38-0.47-3.5-2.39-4.73-4.26-1.23-1.87-2.24-3.06-2.25-2.65zm20.98 14.25c0 0.28 4.84 2.91 10.75 5.85 5.91 2.94 11.88 5.97 13.25 6.75 1.37 0.77 2.73 1.63 3 1.92 0.27 0.29 1.85 1.12 3.5 1.85 1.65 0.73 5.25 2.79 8 4.57 2.75 1.78 10.17 6.68 16.5 10.87 6.33 4.2 12.63 8.42 14 9.38 1.37 0.96 5.88 4.35 10 7.52 4.13 3.18 9.52 7.39 12 9.36 2.48 1.98 9.63 8.17 15.89 13.76 6.27 5.59 16.75 15.8 23.29 22.67 6.54 6.88 12.09 12.28 12.33 12 0.23-0.27-7.77-8.68-17.79-18.68-10.02-10-22.72-21.93-28.22-26.51-5.5-4.58-15.17-12.18-21.5-16.89-6.33-4.7-16-11.49-21.5-15.09-5.5-3.6-13.83-8.78-18.5-11.52-4.67-2.74-14.13-7.97-21-11.63-6.88-3.65-12.84-6.65-13.25-6.66-0.41-0.01-0.75 0.21-0.75 0.48zm-330 6.62c-2.48 1.11-5.85 2.63-7.5 3.38-1.65 0.76-7.38 3.39-12.74 5.87-5.36 2.47-9.74 4.75-9.75 5.06-0.01 0.31 1.23-0.01 2.74-0.71 1.51-0.7 5.45-2.54 8.75-4.08 3.3-1.55 7.35-3.41 9-4.14 1.65-0.73 5.71-2.57 9.03-4.09 5.06-2.32 6.39-2.58 8.25-1.59 1.74 0.93 2.15 0.91 1.89-0.07-0.18-0.69-1.41-1.34-2.75-1.45-1.33-0.11-4.44 0.71-6.92 1.82zm325 8.22c11.27 5.66 22.98 11.74 26 13.52 3.02 1.77 5.62 3.09 5.78 2.93 0.15-0.16-0.75-1.02-2-1.91-1.26-0.89-5.43-3.32-9.28-5.39-3.85-2.08-10.04-5.29-13.75-7.14-3.71-1.84-7.2-3.35-7.75-3.35-0.55 0-1-0.45-1-1 0-0.55-0.45-1-1-1-0.55 0-4.38-1.57-8.5-3.5-4.13-1.93-7.84-3.49-8.25-3.48-0.41 0.01 8.48 4.66 19.75 10.32zm-24-8.69c-0.83 0.27-2.4 0.9-3.5 1.4-1.1 0.5-5.83 2.31-10.5 4.01-4.67 1.7-9.17 3.5-10 3.99-0.83 0.49-1.27 0.91-1 0.94 0.27 0.04 6.58-2.23 14-5.03 7.42-2.8 13.69-5.28 13.92-5.52 0.23-0.24 0-0.4-0.5-0.36-0.51 0.04-1.59 0.3-2.42 0.57zm-286.6 2.35c0.33 0.55 1.28 1 2.1 1 0.83 0 3.64 0.92 6.25 2.03 2.61 1.12 5.13 1.91 5.59 1.75 0.47-0.15-2.23-1.51-6-3.01-3.76-1.5-7.22-2.73-7.69-2.75-0.47-0.01-0.58 0.43-0.25 0.98zm17.6 6.24c1.38 0.6 3.85 1.66 5.5 2.35 1.65 0.69 4.13 1.57 5.5 1.95 1.38 0.39 2.27 0.47 2 0.18-0.27-0.28-3.42-1.7-7-3.13-3.57-1.44-6.95-2.58-7.5-2.54-0.55 0.05 0.13 0.58 1.5 1.19zm235.5 4.24c-3.3 1.31-5.55 2.41-5 2.45 0.55 0.04 3.48-0.87 6.5-2.02 3.02-1.15 5.69-2.27 5.92-2.5 0.23-0.22 0-0.39-0.5-0.36-0.51 0.03-3.62 1.12-6.92 2.43zm-221 1.31c0.55 0.49 3.93 1.91 7.5 3.15 3.58 1.24 7.4 2.61 8.5 3.05 1.1 0.44 4.36 1.75 7.25 2.91 2.89 1.15 5.81 2.07 6.5 2.03 0.69-0.03 0.13-0.56-1.25-1.17-1.37-0.6-3.85-1.66-5.5-2.35-1.65-0.68-7.05-2.66-12-4.4-4.95-1.74-9.67-3.38-10.5-3.64-0.94-0.31-1.13-0.15-0.5 0.42zm206.25 4.02c-3.72 1.48-6.64 2.8-6.5 2.93 0.14 0.13 2.73-0.58 5.75-1.59 3.02-1 6.4-2.33 7.5-2.96 1.1-0.62 1.55-1.12 1-1.1-0.55 0.01-4.04 1.23-7.75 2.72zm-295.75 3.3c-3.02 1.7-8.65 4.95-12.5 7.23-3.85 2.27-12.4 7.7-19 12.07-6.6 4.36-17.22 12.02-23.6 17.01-6.37 4.99-14.24 11.33-17.47 14.08-3.24 2.75-8.35 7.25-11.37 10-3.02 2.75-10.6 9.95-16.86 16l-11.38 11 2.07 18-0.93-18c9.72-9.11 16.14-15.19 20.54-19.39 4.4-4.2 10.05-9.43 12.55-11.62 2.51-2.19 5.88-5.12 7.5-6.5 1.62-1.37 5.2-4.3 7.95-6.5 2.75-2.19 5.23-4.25 5.5-4.58 0.27-0.32 3.88-3 8-5.96 4.13-2.96 7.73-5.62 8-5.91 0.27-0.3 4.33-3.08 9-6.19 4.68-3.11 15.02-9.56 23-14.32 7.98-4.76 14.69-8.86 14.92-9.1 0.23-0.23 0.23-0.43 0-0.42-0.23 0-2.9 1.4-5.92 3.1zm121.73 3.78c-0.4 0.61-0.17 1.3 0.52 1.53 0.69 0.23 3.84 1.36 7 2.5 3.16 1.15 5.98 2.08 6.25 2.08 0.27 0 0.27-0.45 0-1-0.27-0.55-1.29-1-2.25-1-0.96 0.01-3.41-0.9-5.44-2-2.03-1.1-3.72-1.67-3.76-1.25-0.05 0.41-0.42 0.14-0.83-0.61-0.53-0.95-0.98-1.02-1.49-0.25zm149.77 2.18c-4.4 1.63-8.23 3.03-8.5 3.1-0.27 0.08-1.85 0.73-3.5 1.44-1.65 0.72-2.55 1.32-2 1.33 0.55 0.02 5.5-1.62 11-3.63 5.5-2.01 10.43-4.03 10.95-4.49 0.52-0.45 0.75-0.8 0.5-0.77-0.25 0.03-4.05 1.38-8.45 3.02zm130-1.33c0.55 0.55 5.39 3.75 10.75 7.13 5.36 3.37 9.75 5.79 9.74 5.38 0-0.41-4.39-3.45-9.75-6.75-5.36-3.3-10.19-6.17-10.74-6.37q-1-0.38 0 0.61zm-264.5 5.65c0.27 0.25 6.01 2.51 12.75 5.03 6.74 2.52 12.81 4.55 13.5 4.52 0.69-0.04-2.35-1.42-6.75-3.08-4.4-1.66-8.9-3.39-10-3.86-1.1-0.46-3.57-1.33-5.5-1.93-1.93-0.61-3.73-1.11-4-1.11-0.27-0.01-0.27 0.19 0 0.43zm98.5 8.7c-4.4 1.58-8.24 3.45-8.53 4.14-0.3 0.7-0.3 9.37 0 19.27l0.53 18 1-37.81c11.85-4.02 15.64-5.53 16.06-5.94 0.43-0.41 0.36-0.7-0.14-0.64-0.51 0.05-4.52 1.4-8.92 2.98zm188-0.23c0.55 0.48 5.27 3.94 10.5 7.68 5.23 3.74 12.65 9.3 16.5 12.35 3.85 3.04 7.49 6 8.1 6.57 0.6 0.57 4.2 3.71 8 6.97 3.79 3.26 13.54 12.59 21.65 20.75 8.11 8.15 14.33 14.03 13.83 13.07-0.51-0.96-7.83-8.51-16.25-16.77-8.43-8.27-18.48-17.74-22.33-21.05-3.85-3.32-9.02-7.58-11.5-9.48-2.48-1.9-4.73-3.71-5-4.04-0.27-0.32-3.87-3-8-5.96-4.12-2.96-7.73-5.62-8-5.91-0.27-0.3-1.96-1.55-3.75-2.79-1.79-1.24-3.59-2.26-4-2.27-0.41-0.01-0.3 0.39 0.25 0.88zm-253.12 25.64c0 6.6 0.17 9.07 0.36 5.5 0.2-3.57 0.19-8.97 0-12-0.2-3.02-0.36-0.1-0.36 6.5zm56.42 72.85l0.3 50.15c3.41 3.15 6.09 5.06 8.15 6.28 2.06 1.22 3.95 2.11 4.2 1.97 0.24-0.14-2.23-2.05-5.5-4.25l-5.95-4c-0.02-75.95-0.36-98.52-0.77-99.15-0.4-0.64-0.6 21.41-0.43 49zm-56.85-31.6c0.03 9.49 0.39 17.25 0.8 17.25 0.41 0 0.66-7.54 0.55-16.75-0.11-9.21-0.46-16.97-0.79-17.25-0.33-0.27-0.58 7.26-0.56 16.75zm355.81-4.56c0.13 0.45 1.7 1.08 3.49 1.41 1.79 0.32 7.98 1.69 13.75 3.02 5.77 1.34 10.6 2.31 10.73 2.16 0.12-0.15-6.17-1.88-14-3.84-7.82-1.96-14.11-3.2-13.97-2.75zm60.1 2.56c0.54 0.96 2.83 4.23 5.08 7.25 2.26 3.03 4.09 5.84 4.08 6.25-0.01 0.41-3.17-0.15-7.02-1.25-3.85-1.1-7.34-1.99-7.75-1.97-0.41 0.02-0.08 0.43 0.75 0.92 0.83 0.48 4.54 1.59 8.25 2.47 3.71 0.87 6.98 1.58 7.25 1.58 0.27 0 0.34-0.56 0.14-1.25-0.19-0.69-2.58-4.51-5.31-8.5-2.72-3.99-5.29-7.25-5.7-7.25-0.41 0-0.3 0.79 0.23 1.75zm-81.52 11.75c0.01 4.4 0.18 5.98 0.39 3.5 0.21-2.47 0.21-6.07 0-8-0.22-1.92-0.39 0.1-0.39 4.5zm53.66-6.15c1.92 0.75 5.19 1.64 7.25 2 2.06 0.36 3.75 0.43 3.75 0.15 0-0.27-1.69-0.91-3.75-1.42-2.06-0.5-5.33-1.18-7.25-1.5l-3.5-0.57zm-55.55 27.64c-0.36 6.88-0.47 13.85-0.27 15.5 0.21 1.65 0.73-3.75 1.15-12 0.42-8.25 0.54-15.22 0.27-15.5-0.28-0.27-0.79 5.13-1.15 12zm-331.83-7.25c-0.33 2.06-0.57 13.65-0.54 25.75 0.03 12.1 0.41 22.9 0.85 24 0.43 1.1 0.75-10.49 0.7-25.75-0.05-15.26-0.16-27.75-0.25-27.75-0.08 0-0.42 1.69-0.76 3.75zm330.9 29.12c-0.32 0.48-0.68 3.14-0.8 5.92-0.12 2.78 0.1 5.43 0.49 5.89 0.4 0.45 0.85-2.22 1-5.93 0.16-3.71 0.2-6.75 0.09-6.75-0.11 0-0.46 0.39-0.78 0.87zm-609.45 10.63c0.07 3.3 0.49 8.48 0.93 11.5 0.55 3.75 0.63 2 0.27-5.5-0.29-6.05-0.71-11.22-0.93-11.5-0.22-0.27-0.34 2.2-0.27 5.5zm608.14 8c-0.11 3.3-0.41 9.6-0.67 14l-0.46 8c1.51-9.3 1.81-15.6 1.64-20-0.27-6.8-0.34-7.1-0.51-2zm-329.16 6.25c0.02 0.98-2.4 3.63-5.5 6-3.05 2.34-5.55 4.48-5.55 4.75 0 0.28 1.46-0.5 3.25-1.72 1.79-1.21 3.8-2.68 4.47-3.25 0.66-0.56 1.9-1.59 2.75-2.28 0.84-0.69 1.53-2.15 1.53-3.25 0-1.1-0.22-2-0.5-2-0.27 0-0.48 0.79-0.45 1.75zm-36.31 28.55c-12.98 9.46-24.57 17.88-25.76 18.7-1.19 0.83-6.51 4.66-11.82 8.52-5.31 3.86-10.78 7.77-12.16 8.7-1.37 0.93-7.33 5.2-13.23 9.48-5.9 4.29-15.75 11.4-21.88 15.8-6.13 4.4-11.4 8.45-11.71 9-0.31 0.55 0.08 0.48 0.88-0.15 0.79-0.64 12.24-8.85 25.44-18.25 13.2-9.41 24.83-17.66 25.85-18.35 1.02-0.69 4.17-2.94 7-5.02 2.83-2.07 5.46-3.76 5.83-3.75 0.37 0.01 1.27-0.55 2-1.25 0.73-0.7 4.02-3.34 7.32-5.86 3.3-2.52 12.53-9.24 20.5-14.93 7.98-5.69 16.53-11.96 19-13.93 2.48-1.98 5.18-3.85 6-4.16 0.83-0.32 1.24-0.84 0.92-1.16-0.32-0.33-11.2 7.15-24.18 16.61zm112.76-9.78c4.4 3.06 13.18 9.36 19.5 14.01 6.33 4.66 25.45 18.47 42.5 30.7 17.05 12.24 31.45 22.62 32 23.07 0.55 0.45 6.06 4.4 12.25 8.76l11.25 7.94c16.66-5.55 22.18-7.61 23-8.16 1.17-0.77 1.06-0.85-0.5-0.35-1.1 0.35-6.61 2.18-12.25 4.07l-10.25 3.44c-67.04-48.19-93.47-67.32-102-73.61-8.52-6.3-16.85-12.33-18.5-13.41-1.65-1.08-3.45-1.98-4-1.99-0.55-0.01 2.6 2.48 7 5.53zm249.94 17.48c-0.37 7.43-0.47 14.4-0.23 15.5 0.24 1.1 0.77-4.75 1.18-13 0.4-8.25 0.5-15.22 0.22-15.5-0.28-0.27-0.81 5.58-1.17 13zm-602.3-5.5c-0.07 3.3 0.21 9.04 0.62 12.76 0.41 3.72 0.97 6.76 1.24 6.75 0.28-0.01 0.38-2.15 0.22-4.76-0.15-2.61-0.65-8.35-1.11-12.75l-0.84-8zm587.86 31.51c-1.38 0.46-4.75 1.75-7.5 2.87-2.75 1.11-4.55 2.05-4 2.08 0.55 0.04 4.6-1.27 9-2.9 4.4-1.63 7.32-2.94 6.5-2.92-0.83 0.02-2.63 0.41-4 0.87zm-563.94 3.17c-0.07 0.18 4.5 1.84 10.15 3.69 5.66 1.85 12.87 4.21 16.04 5.25 3.16 1.03 6.08 1.69 6.5 1.45 0.41-0.24-5.78-2.45-13.75-4.91-7.98-2.47-15.47-4.78-16.66-5.14-1.19-0.36-2.21-0.51-2.28-0.34zm523.74 10.65c-9.19 3.12-16.61 5.82-16.5 6 0.11 0.18 7.96-2.18 17.45-5.25 9.48-3.07 17.25-5.8 17.25-6.08 0-0.27-0.34-0.46-0.75-0.42-0.42 0.04-8.27 2.63-17.45 5.75zm-488.3 0.97c0.55 0.48 5.5 2.28 11 4.02 5.5 1.74 10.45 3.13 11 3.1 0.55-0.04-2.15-1.17-6-2.52-3.85-1.35-9.25-3.13-12-3.96-2.75-0.82-4.55-1.11-4-0.64zm455.28 10.02c-7.54 2.58-13.62 4.81-13.5 4.98 0.12 0.16 2.47-0.37 5.22-1.17 2.75-0.81 9.05-2.89 14-4.63 4.95-1.75 9.18-3.36 9.41-3.58 0.23-0.23 0.01-0.39-0.5-0.35-0.5 0.04-7.09 2.18-14.63 4.75zm-431.28-2.09c0.55 0.52 4.82 2.14 9.5 3.6 4.67 1.46 8.95 2.62 9.5 2.59 0.55-0.04-2.83-1.39-7.5-3.01-4.68-1.61-9.4-3.2-10.5-3.53-1.28-0.39-1.64-0.26-1 0.35zm21 7.09c0.55 0.46 3.02 1.39 5.5 2.06 2.47 0.67 4.72 0.99 5 0.71 0.27-0.28-1.78-1.2-4.56-2.04-2.77-0.85-5.47-1.56-6-1.56-0.55-0.01-0.53 0.33 0.06 0.83zm18 6.01c0.55 0.47 4.37 1.86 8.5 3.1l7.5 2.24 4-4.41c-4.85 3.13-5.44 3.07-12.04 0.73-3.87-1.37-7.47-2.5-8-2.5-0.59-0.02-0.58 0.31 0.04 0.84zm-148 24.84c-6.05 6.4-15.57 16.4-21.14 22.23-5.58 5.83-14.04 14.65-18.8 19.6-4.76 4.95-12.13 12.79-16.36 17.42-4.24 4.63-9.95 10.71-12.7 13.5-2.75 2.8-5.86 6.21-6.91 7.58-1.06 1.38 1.64-1.11 6-5.53 4.35-4.41 14.88-15.44 23.41-24.49 8.52-9.06 20.9-22.05 27.5-28.87 6.6-6.82 13.35-13.83 15-15.56 1.65-1.74 5.7-6.06 9-9.6 3.3-3.55 6.67-6.75 7.5-7.13 1.33-0.6 1.33-0.68 0-0.73-0.83-0.03-6.45 5.18-12.5 11.58zm649.25-5.17c3.35 3.85 9.06 10.04 12.67 13.75 3.62 3.71 6.57 6.41 6.56 6-0.01-0.41-5.71-6.6-12.67-13.75-6.96-7.15-9.91-9.85-6.56-6zm-27.75 1.15c-6.88 2.4-12.69 4.58-12.92 4.85-0.23 0.28-0.23 0.51 0 0.52 0.23 0.01 6.49-2.05 13.92-4.58 7.42-2.53 13.68-4.79 13.91-5.02 0.23-0.23-0.22-0.35-1-0.27-0.78 0.08-7.04 2.11-13.91 4.5zm-592.85-1.26c-0.08 0.34 2.88 1.51 6.6 2.61 3.71 1.1 6.97 1.8 7.25 1.56 0.27-0.23-1.98-1.11-5-1.94-3.03-0.83-6.22-1.81-7.1-2.17-0.87-0.36-1.66-0.39-1.75-0.06zm564.17 10.94c-6.7 2.29-12.55 4.53-13 4.96-0.46 0.43 4.8-1.09 11.68-3.38 6.87-2.29 12.92-4.56 13.45-5.04 0.52-0.48 0.74-0.83 0.5-0.79-0.25 0.04-5.94 1.96-12.63 4.25zm-524.32 2.17c0 0.28 2.81 1.39 6.25 2.48 3.43 1.09 6.47 1.77 6.75 1.51 0.27-0.25-0.18-0.66-1-0.89-0.83-0.24-3.55-1.14-6.05-2.01-2.49-0.87-4.86-1.59-5.25-1.59-0.39 0-0.7 0.23-0.7 0.5zm-226.9 9.25c0.09 2.7 0.11 2.71 0.84 0.36 0.7-2.24 1.19-1.89 8.26 6 4.13 4.62 9.04 10.17 10.9 12.34 1.87 2.17 5.2 5.81 7.4 8.09 2.2 2.28 5.69 6.13 7.76 8.55 2.07 2.43 3.96 4.19 4.18 3.91 0.23-0.27-3.81-5-8.97-10.5-5.16-5.5-9.4-10.34-9.43-10.75-0.02-0.41-1.73-2.45-3.79-4.53-2.07-2.07-6.34-6.57-9.5-10-3.17-3.42-6.2-6.22-6.75-6.22-0.55 0-0.96 1.24-0.9 2.75zm707.4 3.04c-7.7 2.53-13.55 4.74-13 4.91 0.55 0.17 7.52-1.91 15.5-4.62 7.97-2.71 13.82-4.92 13-4.91-0.83 0-7.8 2.08-15.5 4.62zm120.5-4.29c0.02 0.55 2.96 4.04 6.52 7.75 3.56 3.71 6.65 6.64 6.87 6.5 0.22-0.14-2.72-3.62-6.52-7.75-3.81-4.12-6.9-7.05-6.87-6.5zm121.98 15.51c-5.22 6.16-11.06 13.15-12.98 15.55-1.93 2.39-4.07 4.37-4.75 4.4-0.69 0.02-1.14 0.41-1 0.86 0.13 0.45-3.88 5.73-8.92 11.75-5.05 6.01-10.24 12.06-11.53 13.43-1.3 1.38-3.36 3.96-4.58 5.75-1.7 2.48-2.15 4.37-1.9 8l0.32 4.75c0.27-9.36 0.84-10.63 4.57-14.9 2.36-2.7 10.27-11.93 17.58-20.5 7.31-8.58 17.43-20.62 22.5-26.76 5.06-6.13 9.54-10.97 9.96-10.75 0.41 0.23 0.77 2.32 0.8 4.66 0.04 2.34 0.47 6.05 0.97 8.25 0.69 3.02 0.78 1.91 0.38-4.5-0.29-4.67-0.85-9.1-1.23-9.85-0.49-0.92-3.68 2.17-10.19 9.86zm-951.31-4.01c-0.36 3.03-0.6 7.53-0.53 10 0.08 2.73 0.47 0.95 0.99-4.5 0.48-4.95 0.72-9.45 0.53-10-0.18-0.55-0.63 1.48-0.99 4.5zm282.33-1.5c0 0.28 4.38 1.85 9.75 3.49 5.36 1.65 10.42 2.98 11.25 2.95 0.82-0.03-3.23-1.59-9-3.48-5.78-1.89-10.84-3.44-11.25-3.45-0.42 0-0.75 0.22-0.75 0.49zm564.5 9.65c2.2 2.3 5.54 5.8 7.43 7.77 1.89 1.97 3.24 3.05 3 2.41-0.24-0.64-3.25-4.13-6.68-7.75-3.44-3.62-6.59-6.59-7-6.59-0.42-0.01 1.05 1.86 3.25 4.16zm116.57 19.35c0.07 7.7 0.49 16.48 0.94 19.5 0.48 3.29 0.59-2.14 0.27-13.5-0.29-10.45-0.71-19.22-0.93-19.5-0.23-0.27-0.35 5.8-0.28 13.5zm-964.75-3c0.01 3.85 0.19 5.2 0.4 3 0.22-2.2 0.22-5.35 0-7-0.22-1.65-0.4 0.15-0.4 4zm859.77-4.88c0.22 0.62 4.46 5.53 9.41 10.92 4.95 5.39 12.02 12.99 15.72 16.88l6.72 7.08 0.36 15c1.05-10.07 1.09-13.52 0.77-14.16-0.31-0.64-4.44-5.37-9.17-10.5-4.73-5.14-10.81-11.77-13.5-14.74-2.7-2.97-6.21-6.8-7.81-8.5-1.6-1.7-2.72-2.59-2.5-1.98zm-814.59 13.56c1.65 1.77 3.45 3.73 4 4.36 0.55 0.64 3.52 4.04 6.6 7.56 3.09 3.52 7.51 8.57 9.83 11.21 2.32 2.65 4.19 4.45 4.16 4-0.03-0.44-2.87-3.99-6.32-7.87-3.45-3.89-8.97-10.14-12.27-13.89-3.3-3.75-6.12-7.21-6.25-7.68-0.14-0.48-0.82-0.88-1.5-0.89-0.69-0.01 0.1 1.43 1.75 3.2zm275.7 10.82c0.27 0.83 2.03 5.66 3.9 10.74 1.87 5.08 3.5 9.13 3.62 9 0.13-0.13-1.17-4.51-2.87-9.74-1.71-5.22-3.57-9.95-4.13-10.5q-1.03-1.01-0.52 0.5zm334.47 10.21c-1.53 4.56-2.64 8.39-2.48 8.5 0.17 0.12 1.46-3.42 2.86-7.87 1.41-4.44 2.52-8.27 2.48-8.5-0.05-0.24-1.33 3.3-2.86 7.87zm310.51 4.79c-0.13 1.38-0.42 8.13-0.65 15-0.37 11.18-0.31 11.76 0.56 5.5 0.53-3.85 0.82-10.6 0.64-15-0.18-4.4-0.43-6.87-0.55-5.5zm-881.59 9c0.25 5.23 0.68 9.73 0.96 10 0.27 0.28 0.44-1.3 0.37-3.5-0.08-2.2-0.51-6.7-0.96-10-0.69-4.96-0.75-4.35-0.37 3.5zm-84.24 11c0.35 7.98 0.89 14.73 1.22 15 0.34 0.28 0.29-6.02-0.09-14-0.39-7.97-0.93-14.72-1.22-15-0.29-0.27-0.25 6.03 0.09 14zm328.69-13.5c-0.04 0.55 1.1 4.38 2.53 8.5 1.43 4.13 2.83 7.73 3.1 8 0.27 0.28 0.21-0.62-0.13-2-0.35-1.37-1.71-5.42-3.03-9-1.33-3.57-2.44-6.05-2.47-5.5zm-258.82 7c-0.02 2.2 0.3 6.25 0.73 9 0.62 4.01 0.79 4.31 0.81 1.5 0.02-1.92-0.3-5.97-0.72-9-0.66-4.79-0.77-4.98-0.82-1.5zm820.26 4.75c-0.38 3.99-1.43 11.61-2.34 16.93-0.9 5.32-1.32 9.37-0.92 9 0.39-0.37 1.38-4.5 2.19-9.18 0.82-4.67 1.77-11.99 2.12-16.25 0.35-4.26 0.42-7.75 0.14-7.75-0.27 0-0.8 3.26-1.19 7.25zm-804.61 2.25c-0.04 0.55 0.02 2.8 0.14 5 0.11 2.2 0.59 4.9 1.07 6 0.54 1.24 0.64-0.49 0.26-4.5-0.33-3.57-0.79-6.72-1-7-0.22-0.27-0.43-0.05-0.47 0.5zm818.56 5.5c-0.35 3.03-0.45 6.4-0.23 7.5 0.23 1.1 0.79-1.07 1.25-4.83 0.45-3.75 0.55-7.13 0.22-7.5-0.32-0.37-0.88 1.81-1.24 4.83zm-832.33 3.75c-0.06 1.24 0.67 6.86 1.61 12.5 0.94 5.64 1.85 9.58 2.02 8.75 0.17-0.82-0.56-6.45-1.61-12.5-1.06-6.05-1.96-9.99-2.02-8.75zm830.68 9.38c-0.37 1.31-0.97 4.62-1.32 7.37-0.36 2.75-0.42 4.78-0.13 4.5 0.29-0.27 1-3.4 1.57-6.94 0.58-3.54 0.94-6.63 0.8-6.87-0.13-0.23-0.55 0.64-0.92 1.94zm-900.75 3.37c0.04 2.2 0.47 5.8 0.95 8 0.65 2.97 0.73 2.06 0.31-3.5-0.3-4.12-0.73-7.72-0.95-8-0.22-0.27-0.36 1.3-0.31 3.5zm960.52 7.75c-0.37 3.99-1.32 11.3-2.11 16.25-0.79 4.95-1.45 9.68-1.47 10.5-0.02 0.83 0.17 1.28 0.41 1 0.24-0.27 1.12-4.55 1.96-9.5 0.84-4.95 1.81-12.71 2.17-17.25 0.35-4.54 0.44-8.25 0.18-8.25-0.25 0-0.76 3.26-1.14 7.25zm-80.32 15.03c-1.25 5.07-2.15 9.33-2 9.45 0.14 0.13 1.24-3.82 2.43-8.79 1.2-4.96 2.1-9.22 2-9.46-0.09-0.24-1.19 3.72-2.43 8.8zm-878.05-4.78c-0.02 2.2 0.34 4.9 0.82 6 0.72 1.7 0.85 1.54 0.81-1-0.03-1.65-0.39-4.35-0.81-6-0.73-2.87-0.77-2.82-0.82 1zm73.8 2c0.03 0.55 0.71 3.93 1.53 7.5 0.82 3.58 1.71 7.51 1.99 8.75 0.3 1.38 0.98 2.01 1.75 1.63q1.26-0.63 0.18-1.25c-0.59-0.35-1.85-4.23-2.81-8.63-0.96-4.4-1.96-8.22-2.21-8.5-0.26-0.27-0.45-0.05-0.43 0.5zm799.51 21.25c-0.96 3.71-2.34 8.1-3.06 9.75-0.72 1.65-1.77 4.8-2.33 7-0.57 2.2-0.93 4.11-0.82 4.25 0.12 0.13 1.89-4.82 3.93-11 2.05-6.19 3.96-12.49 4.25-14 0.3-1.51 0.37-2.75 0.16-2.75-0.21 0-1.17 3.04-2.13 6.75zm-522.93-2.75c0.44 1.38 1.83 5.88 3.07 10 1.24 4.13 2.29 6.6 2.32 5.5 0.04-1.1-1.08-5.37-2.49-9.5-1.41-4.12-2.82-7.72-3.13-8-0.32-0.27-0.22 0.63 0.23 2zm603.55-0.25c-0.06 1.24-1.24 6.98-2.61 12.75-1.38 5.78-2.52 11.06-2.53 11.75-0.02 0.69 0.18 1.03 0.43 0.75 0.25-0.27 1.65-5.9 3.1-12.5 1.46-6.6 2.44-12.67 2.19-13.5-0.28-0.9-0.51-0.6-0.58 0.75zm-65.02 2.25c-0.04 0.83-0.86 4.03-1.83 7.13-0.97 3.09-1.43 5.45-1.01 5.25 0.41-0.21 1.45-2.97 2.32-6.13 0.86-3.16 1.35-6.2 1.08-6.75-0.27-0.55-0.53-0.32-0.56 0.5zm-268.69 2.75c-0.3 0.96-1.19 3.21-1.98 5-0.78 1.79-1.41 4.26-1.39 5.5 0.02 1.24 0.69 3.15 1.5 4.25 0.82 1.1 2.36 3.13 3.43 4.5 1.08 1.38 2.86 3.63 3.96 5 1.11 1.38 2.04 2.28 2.08 2 0.04-0.27-1.99-3.2-4.51-6.5-2.53-3.3-4.84-7.12-5.13-8.5-0.3-1.37 0.12-3.85 0.94-5.5 0.81-1.65 1.73-4.01 2.04-5.25 0.31-1.24 0.35-2.25 0.09-2.25-0.27 0-0.73 0.79-1.03 1.75zm-539.86 3.5c0.4 1.79 2.52 8.65 4.7 15.25 2.17 6.6 4.61 13.13 5.42 14.5 0.94 1.6 1.22 1.78 0.79 0.5-0.37-1.1-2.65-7.96-5.07-15.25-2.41-7.29-4.45-14.37-4.53-15.75-0.08-1.37-0.58-2.5-1.1-2.5-0.56 0-0.65 1.34-0.21 3.25zm269.86 15.29c-2.15 3.04-5.48 7.76-7.4 10.47-1.93 2.72-7.25 10.24-11.82 16.72-4.57 6.47-13.68 19.31-20.25 28.52-6.56 9.21-11.82 16.97-11.68 17.24 0.13 0.27 4.75-5.89 10.25-13.68 5.5-7.8 12.02-17 14.5-20.45 2.47-3.45 9.67-13.53 16-22.4 6.32-8.87 12.28-17.44 13.23-19.04 0.95-1.61 1.59-2.92 1.4-2.92-0.18 0-2.09 2.49-4.23 5.54zm-247.89 3.46c0.42 1.38 0.83 2.95 0.92 3.5 0.09 0.55 0.7 2.01 1.36 3.25 0.67 1.24 0.87 2.23 0.46 2.21-0.42-0.03-0.2 0.54 0.49 1.25 0.68 0.71 0.94 1.63 0.58 2.04-0.36 0.41-0.13 0.75 0.51 0.75 0.64 0 1.18-0.11 1.19-0.25 0.01-0.14-1.15-3.4-2.59-7.25-1.43-3.85-2.85-7.22-3.14-7.5-0.3-0.27-0.2 0.63 0.22 2zm762.89-0.25c-0.3 0.96-2.62 7.15-5.16 13.75-2.54 6.6-6.56 16.16-8.93 21.25-2.37 5.09-4.09 9.25-3.81 9.25 0.27 0 1.91-2.81 3.63-6.25 1.72-3.44 5.72-12.77 8.88-20.75 3.16-7.97 6-15.51 6.32-16.75 0.32-1.24 0.36-2.25 0.1-2.25-0.27 0-0.73 0.79-1.03 1.75zm78.6 15.23c-2.48 8.72-4.22 15.55-3.86 15.19 0.35-0.37 2.02-5.17 3.7-10.67 1.68-5.5 3.49-12.15 4.02-14.79 0.53-2.63 0.89-4.96 0.8-5.18-0.09-0.22-2.19 6.74-4.66 15.45zm-932.91-8.98c-0.04 0.83 0.79 4.2 1.83 7.5 1.04 3.3 1.93 5.55 1.98 5 0.05-0.55-0.78-3.92-1.83-7.5-1.06-3.57-1.95-5.82-1.98-5zm623.85 9.5c2.78 4.13 5.28 7.5 5.56 7.5 0.27 0-1.75-3.37-4.5-7.5-2.75-4.12-5.25-7.5-5.56-7.5-0.3 0 1.72 3.38 4.5 7.5zm-524.31 5.5c0.34 1.38 1.22 3.63 1.96 5 0.74 1.38 1.06 2.84 0.71 3.25-0.35 0.41-0.11 0.75 0.53 0.75 0.64 0 1.14-0.34 1.1-0.75-0.03-0.41-1.15-3-2.48-5.75-1.34-2.75-2.15-3.87-1.82-2.5zm-14.62 4c1.19 3.03 2.6 6.18 3.15 7 0.88 1.34 0.94 1.34 0.52 0-0.26-0.82-1.26-3.52-2.22-6-0.97-2.47-2.18-4.95-2.69-5.5-0.5-0.55 0.05 1.48 1.24 4.5zm370.99-1c-5.49 0.37-2.4 0.66 11.5 1.1 10.45 0.32 26.65 0.29 36-0.07 9.35-0.36 14.97-0.79 12.5-0.95-2.48-0.16-15.3-0.36-28.5-0.44-13.2-0.07-27.38 0.09-31.5 0.36zm69.8 0.18c0.38 0.37 4.52 0.77 9.2 0.89 4.67 0.13 9.85 0.15 11.5 0.06 1.74-0.09 2.5-0.47 1.81-0.89-0.66-0.41-3.13-0.51-5.49-0.24-2.36 0.28-7.32 0.28-11.01 0-3.69-0.27-6.4-0.19-6.01 0.18zm-139.57 4.07c-1.68 2.34-3.91 5.15-4.95 6.25-1.04 1.1-1.98 2.45-2.08 3-0.1 0.55-0.75 1.68-1.45 2.51-0.69 0.84-2.49 3.42-4 5.75-1.52 2.34-3.2 4.24-3.75 4.24-0.55 0-1.03 0.48-1.07 1.07-0.04 0.59-2.06 3.97-4.5 7.5-2.44 3.54-4.32 6.45-4.18 6.47 0.13 0.03 3.37-4.13 7.2-9.25 3.82-5.11 9.61-13.11 12.86-17.79 3.24-4.67 7.05-9.74 8.45-11.25 1.41-1.51 2.1-2.75 1.55-2.75-0.56 0-2.4 1.91-4.08 4.25zm169.27-3.54c5.3 0.29 6.33 0.7 8.88 3.56 1.58 1.78 2.53 2.56 2.1 1.73-0.43-0.82-1.73-2.52-2.88-3.77-1.8-1.95-2.99-2.25-8.1-2.06l-6 0.21zm12.02 8.29c0.46 0.83 3.9 5.89 7.65 11.25 3.75 5.37 7.05 9.75 7.33 9.75 0.27 0 0.18-0.56-0.2-1.25-0.38-0.68-3.59-5.3-7.13-10.25-3.53-4.95-6.89-9.45-7.45-10q-1.03-1.01-0.2 0.5zm76.01 11c0.46 0.83 3.23 4.99 6.15 9.25 2.92 4.27 5.54 7.75 5.82 7.75 0.27 0-0.72-1.91-2.22-4.25-1.49-2.33-4.04-6.05-5.67-8.25-1.64-2.2-3.41-4.45-3.94-5q-0.94-0.96-0.14 0.5zm279.66 1.75c-0.55 1.52-3.41 8.81-6.35 16.21-2.94 7.4-5.51 13.92-5.72 14.5q-0.37 1.04 0.63 0.04c0.55-0.55 3.48-7.3 6.51-15 3.04-7.7 5.77-15.01 6.08-16.25 0.31-1.23 0.41-2.25 0.21-2.25-0.2 0-0.81 1.24-1.36 2.75zm-95.35 13.52c-6.26 12-7.82 14.28-10.59 15.41-1.79 0.73-4.38 1.32-5.75 1.32-1.38 0-2.5 0.45-2.5 1 0 0.66 1.45 0.64 4.25-0.05 2.33-0.58 5.15-1.64 6.25-2.36 1.1-0.72 5.27-7.33 9.27-14.69 3.99-7.37 7.07-13.69 6.84-14.05-0.23-0.37-3.73 5.68-7.77 13.42zm-814.18-9.27c0.34 1.38 1.46 4.3 2.48 6.5 1.02 2.2 1.58 2.88 1.25 1.5-0.34-1.37-1.46-4.3-2.49-6.5-1.03-2.2-1.59-2.87-1.24-1.5zm99.56 0.5c0.21 0.55 1.48 3.36 2.83 6.23 1.34 2.87 2.78 5.24 3.2 5.25 0.41 0.01-0.36-2.11-1.71-4.73-1.36-2.61-2.97-5.42-3.58-6.25-0.61-0.82-0.95-1.05-0.74-0.5zm470.35 5.5c0.42 0.83 2.59 4.11 4.84 7.29 2.25 3.18 4.2 5.77 4.34 5.75 0.13-0.02-0.05-0.6-0.42-1.29-0.36-0.68-1.48-2.37-2.47-3.75-1-1.37-1.48-2.91-1.09-3.41 0.4-0.5 0.16-0.61-0.52-0.25-0.69 0.37-1.26 0.33-1.28-0.09-0.01-0.41-0.95-1.87-2.08-3.25-1.14-1.37-1.73-1.82-1.32-1zm262.76 1.25c-0.49 0.69-1.96 3.28-3.27 5.75-1.3 2.48-2.72 4.95-3.16 5.5-0.44 0.55-2.23 3.7-3.99 7-3.09 5.8-3.2 6.39-3.02 17 0.09 6.05 0.4 11.23 0.67 11.5 0.27 0.28 0.48-4.78 0.46-11.25-0.02-11.3 0.09-11.94 2.98-16.75 1.65-2.75 3-5.45 3-6 0-0.55 0.33-1.11 0.75-1.25 0.41-0.13 2.14-3.06 3.84-6.5 1.7-3.43 2.99-6.25 2.86-6.25-0.13 0-0.63 0.57-1.12 1.25zm-186.56 10.51c0.95 1.52 4.31 6.47 7.48 11 3.16 4.53 5.97 8.24 6.25 8.24 0.27 0 0.18-0.56-0.21-1.25-0.39-0.68-3.77-5.63-7.5-11-3.74-5.36-7.01-9.75-7.27-9.75-0.26 0 0.3 1.24 1.25 2.76zm-304.22 3.24c-0.3 1.1-1 2-1.55 2-0.55 0-1.01 0.57-1.03 1.25-0.01 0.69-1.02 2.37-2.25 3.72q-2.28 2.52-0.34 1c1.04-0.8 3.13-3.38 4.65-5.72 1.51-2.33 2.38-4.25 1.92-4.25-0.47 0-1.1 0.9-1.4 2zm-230.16 2c0.31 0.83 2.04 1.88 3.84 2.34 1.8 0.46 4.84 1 6.77 1.2 1.94 0.2 0.83-0.32-2.5-1.16-3.3-0.83-6.61-2.04-7.35-2.69-1.06-0.94-1.22-0.87-0.76 0.31zm664.61 8.55c-6.88 1.88-13.85 3.86-15.5 4.4-2.95 0.96-2.94 0.97 0.5 0.41 1.92-0.31 9.35-2.15 16.5-4.08 7.15-1.93 13.18-3.68 13.41-3.89 0.23-0.21-0.22-0.36-1-0.33-0.78 0.03-7.04 1.6-13.91 3.49zm113.47 10.25c-3.81 7.54-7.3 14.6-7.76 15.7q-0.83 2 0.17 1c0.55-0.55 4.18-7.41 8.06-15.25 3.88-7.83 6.92-14.45 6.75-14.7-0.17-0.25-3.42 5.71-7.22 13.25zm-632.97 1.28c-5.5 7.7-10.34 13.98-10.75 13.96-0.42-0.02-4.47-0.95-9-2.06-4.54-1.12-8.48-1.8-8.75-1.53-0.28 0.28 0.85 0.79 2.5 1.13 1.65 0.35 5.25 1.26 8 2.04 2.75 0.77 5.9 1.4 7 1.39 1.1-0.01 2.78-1.25 3.73-2.76 0.96-1.51 3.53-5.22 5.73-8.25 2.2-3.02 4.56-6.35 5.26-7.39 0.7-1.03 2.19-3.06 3.3-4.5 1.11-1.43 2.59-3.39 3.28-4.36 0.69-0.96 0.9-1.73 0.47-1.71-0.42 0.03-5.27 6.34-10.77 14.04zm-118-12.37c0.55 0.51 3.47 1.49 6.5 2.18 3.02 0.7 5.6 1.11 5.73 0.94 0.12-0.18-1.9-0.91-4.5-1.62-2.61-0.71-5.63-1.55-6.73-1.86-1.27-0.36-1.63-0.23-1 0.36zm-39.87 10.04c-0.36 5.37-0.93 17.63-1.27 27.25-0.34 9.63-0.36 17.28-0.05 17 0.31-0.27 0.8-7.25 1.1-15.5 0.29-8.25 0.81-20.28 1.15-26.75 0.34-6.46 0.42-11.75 0.17-11.75-0.25 0-0.75 4.39-1.1 9.75zm232.57-4.94c-1.72 2.58-3.94 5.62-4.92 6.75-0.98 1.13-2.23 2.76-2.78 3.62-0.55 0.86-3 4.44-5.45 7.95-2.44 3.5-5.1 7.05-5.9 7.87-0.8 0.83-3.04 3.98-4.97 7-1.94 3.03-3.92 5.95-4.4 6.5-0.49 0.55-2.88 3.7-5.32 7-2.45 3.3-4.45 6.34-4.45 6.75-0.01 0.42 1.67 3.74 3.74 7.4 2.06 3.65 4.08 6.8 4.5 7 0.41 0.19-1.04-2.68-3.23-6.4-2.19-3.71-3.99-7.08-4-7.5-0.01-0.41 5.29-8.06 11.78-17 6.49-8.93 15.72-21.76 20.5-28.5 4.78-6.73 8.55-12.45 8.37-12.69-0.18-0.25-1.74 1.66-3.47 4.25zm259.31 0.69c0.9 1.65 2.78 4.35 4.17 6l2.53 3c-2.88-5.11-4.76-7.81-6.03-9.3l-2.32-2.7zm-426.01 0.9c2.2 0.71 5.35 1.57 7 1.91l3 0.61c-4.65-2.06-7.8-2.91-10-3.23l-4-0.58zm570 5.01c-11 2.89-20.68 5.52-21.5 5.84-1.34 0.53-1.34 0.6 0 0.67 0.82 0.05 4.53-0.82 8.25-1.92 3.71-1.1 6.86-1.97 7-1.93 0.13 0.03 0.92-0.15 1.75-0.41 0.82-0.26 7.12-1.91 14-3.67 6.87-1.75 12.68-3.37 12.91-3.59 0.23-0.22-0.22-0.36-1-0.32-0.78 0.04-10.41 2.44-21.41 5.33zm-559.74-2.49c0.11 0.32 2.8 1.17 5.97 1.89 3.17 0.71 5.87 1.16 5.99 1 0.12-0.17-2.57-1.02-5.97-1.89-3.41-0.86-6.11-1.31-5.99-1zm492.18 8.58c2.78 4.13 5.28 7.5 5.56 7.5 0.27 0 0.19-0.56-0.18-1.25-0.37-0.69-2.5-4.06-4.75-7.5-2.24-3.44-4.44-6.25-4.88-6.25-0.44 0 1.47 3.38 4.25 7.5zm-473.94-4.14c0.27 0.24 4.1 1.4 8.5 2.6 4.4 1.2 8.9 2.39 10 2.66 1.56 0.37 1.67 0.27 0.5-0.46-0.83-0.51-5.22-1.88-9.75-3.05-4.54-1.16-8.59-2.12-9-2.14-0.42-0.01-0.53 0.16-0.25 0.39zm510 6.26c-3.03 0.82-5.73 1.76-6 2.08-0.28 0.31 0.85 0.27 2.5-0.11 1.65-0.37 4.63-1 6.63-1.38 2-0.39 3.99-1.05 4.42-1.46 0.43-0.41 0.14-0.72-0.64-0.68-0.78 0.03-3.89 0.73-6.91 1.55zm-18 4.44c-4.13 1.05-8.52 1.92-9.75 1.92-1.24 0.01-2.03 0.47-1.75 1.02 0.27 0.55 1.28 0.79 2.25 0.54 0.96-0.26 4.97-1.27 8.91-2.25 3.94-0.98 7.5-2.13 7.92-2.54 0.41-0.41 0.56-0.71 0.33-0.67-0.23 0.05-3.79 0.94-7.91 1.98zm186.51 19.69c-4.86 8.11-9.11 14.98-9.43 15.25-0.32 0.28-2.28 3.09-4.34 6.25-2.06 3.16-3.52 5.75-3.24 5.75 0.27 0 2.62-3.04 5.21-6.75 2.6-3.71 5.11-6.97 5.59-7.25 0.48-0.27 0.72-0.78 0.53-1.13-0.18-0.35 1.72-3.95 4.22-8 2.51-4.05 6.01-9.84 7.79-12.87 1.77-3.02 3.06-5.61 2.87-5.75-0.19-0.14-4.33 6.38-9.2 14.5zm-51.7-1.77c-0.17 5.49-0.02 11.01 0.34 12.25 0.35 1.25 0.69-3.24 0.75-9.98 0.05-6.74-0.1-12.25-0.34-12.25-0.24 0-0.57 4.49-0.75 9.98zm-784.27 1.52c1.42 2.75 3.48 6.13 4.58 7.5 1.23 1.54 0.91 0.54-0.81-2.58-1.55-2.79-3.61-6.16-4.58-7.5-0.97-1.33-0.6-0.17 0.81 2.58zm785.62 24.75c-0.09 6.46 0.17 11.75 0.59 11.75 0.41 0 0.63-3.71 0.48-8.25-0.15-4.54-0.41-9.82-0.58-11.75-0.18-1.92-0.39 1.79-0.49 8.25zm-771.68-2.75c1.01 1.65 6.28 9.08 11.71 16.5 5.43 7.43 11.69 15.75 13.91 18.5 2.22 2.75 4.8 5.95 5.72 7.12 0.92 1.16 3.14 3.75 4.93 5.75 1.78 2 3.58 3.64 4 3.65 0.41 0.01-0.65-1.45-2.35-3.25-1.71-1.8-6.12-7.09-9.81-11.77-3.69-4.67-7.45-9.4-8.36-10.5-0.9-1.1-5.15-6.84-9.44-12.75-4.29-5.91-7.79-10.97-7.79-11.25 0-0.27-0.99-1.51-2.19-2.75l-2.18-2.25zm570.09 7.68c-2.09 3.47-5.62 9.7-7.85 13.82-2.23 4.13-5.94 10.65-8.24 14.5-2.31 3.85-5.2 9.03-6.44 11.5-1.24 2.48-1.78 4.05-1.2 3.5 0.57-0.55 4.96-7.97 9.73-16.5 4.77-8.52 10.27-18.42 12.22-22 1.95-3.57 4.25-7.29 5.12-8.25 0.88-0.97 1.33-2.02 1.02-2.33-0.31-0.31-2.28 2.28-4.36 5.76zm-523.43-3.68c-0.12 0.55-0.39 5.73-0.61 11.5-0.39 10.47-0.39 10.48 0.56 3 0.53-4.12 0.8-9.3 0.61-11.5-0.19-2.2-0.45-3.55-0.56-3zm747.85 15.17c-5.22 6.97-10.73 13.95-12.24 15.5-1.51 1.56-2.74 3.17-2.72 3.58 0.01 0.41-1.09 1.88-2.45 3.25-2.36 2.39-2.49 2.42-2.91 0.5-0.32-1.46-0.47-1.25-0.55 0.75-0.07 1.51 0.22 2.72 0.63 2.68 0.41-0.03 3.05-2.85 5.85-6.25 2.81-3.4 9.04-11.35 13.85-17.68 4.81-6.32 9.12-12.29 9.58-13.25 0.46-0.96 0.75-1.75 0.64-1.75-0.1 0-4.46 5.7-9.68 12.67zm-22.01-0.17c-0.26 0.55-0.25 4.83 0.04 9.5l0.51 8.5c1.63-11.35 1.62-14.53 0.94-16.31-0.55-1.48-1.23-2.24-1.49-1.69zm-727.95 23.25c0.01 5.91-0.32 11.09-0.75 11.49-0.43 0.41-1.45 0.21-2.28-0.44-0.82-0.66-0.69-0.31 0.29 0.76 1.54 1.68 1.91 1.74 2.73 0.44 0.52-0.82 0.96-6.34 0.97-12.25 0-5.91-0.21-10.75-0.49-10.75-0.27 0-0.49 4.84-0.47 10.75zm229.12 6.5c0.86 1.24 2.53 4.16 3.71 6.5 1.18 2.34 2.38 4.14 2.68 4 0.29-0.14-1.06-3.06-3-6.5-1.95-3.44-3.85-6.25-4.24-6.25-0.39 0 0 1.01 0.85 2.25zm269.75 6c-0.64 1.24-2.68 5.06-4.53 8.5-1.85 3.44-3.14 6.25-2.87 6.25 0.28 0 2.21-3.04 4.3-6.75 2.09-3.71 4.06-7.54 4.37-8.5 0.32-0.96 0.42-1.75 0.23-1.75-0.19 0-0.86 1.01-1.5 2.25zm-16.71 30c-1.18 2.34-3.35 6.28-4.83 8.75-2.24 3.75-2.33 4.12-0.53 2.25 1.2-1.24 2.17-2.47 2.17-2.75 0-0.27 1.48-3.2 3.3-6.5 1.81-3.3 3-6 2.65-6-0.34 0-1.59 1.91-2.76 4.25zm-14.82 25.82c-1.27 2.77-2.66 4.24-4.37 4.61-1.37 0.29-3.85 0.92-5.5 1.4-2.34 0.68-2.01 0.74 1.5 0.28 2.48-0.33 5.18-0.96 6-1.41 0.83-0.45 2.44-2.65 3.59-4.88 1.15-2.24 1.77-4.07 1.37-4.07-0.39 0-1.56 1.83-2.59 4.07zm-198.44 5.71c0.02 0.4 1.5 1.09 3.3 1.55 1.8 0.45 5.3 0.98 7.77 1.17 3.93 0.31 3.73 0.2-1.5-0.88-3.3-0.68-6.81-1.53-7.79-1.89-0.99-0.37-1.79-0.34-1.78 0.05zm169.57 3.79c-6.6 1.28-17.29 2.91-23.76 3.62-6.47 0.72-11.75 1.65-11.75 2.06 0.01 0.41 0.8 0.55 1.76 0.31 0.96-0.24 4.9-0.73 8.75-1.09 3.85-0.35 13.3-1.73 21-3.06 7.7-1.32 15.35-2.82 17-3.32 1.8-0.55 2.2-0.9 1-0.87-1.1 0.02-7.4 1.08-14 2.35zm-121.5 4.85c0.28 0.26 2.98 0.72 6 1.02 3.76 0.37 5.03 0.23 4-0.43-0.82-0.54-3.52-1-6-1.02-2.47-0.02-4.27 0.17-4 0.43zm13 0.91c0.28 0.22 3.09 0.68 6.25 1.03 3.59 0.4 5.75 0.27 5.75-0.36 0-0.56-2.77-1.01-6.25-1.03-3.44-0.01-6.02 0.15-5.75 0.36zm13.6 0.92c0.22 0.41 11.31 0.72 24.65 0.68 13.34-0.04 26.5-0.4 29.25-0.79 2.75-0.39-8.34-0.69-24.65-0.67-16.31 0.02-29.47 0.37-29.25 0.78zm-72.68 4.68c-0.79 0.46-0.98 1.02-0.42 1.26 0.55 0.25 2.8 0.57 5 0.73 2.2 0.15 4.79 0.68 5.75 1.18 0.96 0.5 3.33 0.9 5.25 0.9 1.93 0 3.5 0.34 3.5 0.75 0 0.41 0.79 0.8 1.75 0.85 0.96 0.05 4.9 0.42 8.75 0.82 3.85 0.4 7.9 1 9 1.34 1.1 0.34 2.45 0.7 3 0.8 0.55 0.11 6.18 0.52 12.5 0.93 6.33 0.4 11.28 0.49 11 0.2-0.27-0.3-3.87-0.82-8-1.16-4.12-0.34-12.67-1.3-19-2.14-6.32-0.85-15.32-2.23-20-3.09-4.67-0.85-10.07-1.78-12-2.05-1.92-0.28-3.76-0.88-4.08-1.33-0.32-0.45-1.22-0.44-2 0.01zm170.58 3.19c-2.75 0.48-5.22 1.14-5.5 1.47-0.27 0.33 1.75 0.26 4.5-0.15 2.75-0.41 6.13-1.09 7.5-1.51 1.92-0.58 2.03-0.75 0.5-0.73-1.1 0.02-4.25 0.43-7 0.92zm28.5-0.35c0.02 0.4 3.63 2.42 8.02 4.48 4.39 2.06 8.17 3.64 8.41 3.5 0.23-0.14-3.38-2.15-8.03-4.48-4.64-2.33-8.43-3.91-8.4-3.5zm-222.5 5.82c-6.6 3.07-13.12 6-14.5 6.51-1.37 0.51-2.27 1.16-2 1.45 0.28 0.28 5-1.58 10.5-4.13 5.5-2.55 11.91-5.49 14.25-6.53 2.34-1.04 4.25-2.11 4.25-2.39 0-0.27-0.11-0.49-0.25-0.49-0.14 0.01-5.65 2.52-12.25 5.58zm178-2.59l-2 0.86c3.1 0.02 5.8-0.35 8-0.8l4-0.83c-6.2-0.07-8.9 0.3-10 0.77zm-23.5 2.47c-6.87 0.63-23.07 1.26-36 1.4-12.92 0.14-23.69 0.45-23.92 0.69-0.22 0.24 9.68 0.44 22 0.44 12.33 0 28.5-0.48 35.92-1.08 7.43-0.6 15.3-1.45 17.5-1.9l4-0.8c-5.42 0.08-12.62 0.62-19.5 1.25zm-178.75 11.11c-2.89 1.33-5.14 2.65-5 2.92 0.14 0.28 2.84-0.62 6-2 3.16-1.37 5.75-2.72 5.75-3 0-0.27-0.34-0.46-0.75-0.42-0.41 0.05-3.11 1.18-6 2.5zm278.15-1.58c0.33 0.55 4.54 2.86 9.35 5.13 4.81 2.28 9.2 4.37 9.75 4.65 0.55 0.27 0.33-0.14-0.5-0.93-0.82-0.79-4.87-2.99-9-4.89-4.12-1.9-7.61-3.8-7.75-4.21-0.14-0.41-0.74-0.75-1.35-0.75-0.61 0-0.83 0.45-0.5 1zm-299.4 11.95c-1.92 1.02-3.84 1.68-4.25 1.46-0.41-0.23-1.2 0.27-1.75 1.09-0.55 0.83-1.45 1.28-2 1-0.55-0.27-1.56 0.22-2.25 1.1-1.1 1.41-0.96 1.48 1.25 0.63 1.38-0.53 4.86-2.15 7.75-3.6 2.89-1.44 5.25-2.85 5.25-3.13 0-0.27-0.11-0.48-0.25-0.46-0.14 0.03-1.82 0.88-3.75 1.91zm-31.97 16.3c-0.01 0.96 0.53 1.95 1.22 2.19 0.69 0.24 5.3 2.05 10.25 4.03 4.95 1.99 8.55 3.18 8 2.66-0.55-0.53-4.71-2.34-9.25-4.04-4.54-1.7-8.68-3.88-9.22-4.84-0.92-1.67-0.97-1.67-1 0zm364.75 7.07c-4.24 1.75-7.61 3.3-7.5 3.46 0.12 0.15 3.37-0.89 7.22-2.3 3.85-1.42 7.43-3.01 7.95-3.53 0.52-0.52 0.75-0.92 0.5-0.88-0.25 0.04-3.92 1.51-8.17 3.25zm-34.78 11.78c-3.57 1.07-6.69 2.16-6.92 2.43-0.22 0.26 0.23 0.46 1 0.44 0.78-0.02 3.73-0.81 6.55-1.75 2.83-0.95 5.49-2.06 5.92-2.47 0.43-0.41 0.6-0.71 0.37-0.67-0.23 0.04-3.34 0.95-6.92 2.02zm-254.5 7.85c1.1 0.45 4.48 1.36 7.5 2.01 3.03 0.65 5.73 0.96 6 0.68 0.28-0.29-2.76-1.22-6.75-2.08-3.99-0.86-7.59-1.53-8-1.49-0.41 0.04 0.15 0.43 1.25 0.88zm40 8.05c1.1 0.47 3.8 0.84 6 0.82l4-0.05c-5.5-1.37-8.2-1.74-9.55-1.7-2.26 0.07-2.3 0.14-0.45 0.93zm143-0.09c-2.47 0.55-2.64 0.76-1 1.17 1.1 0.27 4.03-0.05 6.5-0.71 4.4-1.18 4.42-1.21 1-1.17-1.92 0.02-4.85 0.34-6.5 0.71zm-129.54 1.88c0.03 0.39 3.31 0.86 7.29 1.04 3.99 0.19 7.03 0.14 6.75-0.11-0.27-0.24-3.55-0.71-7.29-1.04-3.74-0.33-6.77-0.28-6.75 0.11zm17.43 1.34c-0.21 0.48 2.42 1.13 5.86 1.45 3.44 0.32 8.5 0.4 11.25 0.18 4.76-0.38 4.68-0.41-1.5-0.62-3.57-0.13-8.46-0.6-10.86-1.05-2.42-0.46-4.53-0.44-4.75 0.04zm48.11 1.79c-1.18 0.46 1.36 0.73 6.2 0.68 4.52-0.06 7.44-0.4 6.5-0.78-0.93-0.37-3.72-0.68-6.2-0.68-2.47 0-5.4 0.35-6.5 0.78z"/>
	</g>
</svg>